<svg xmlns="http://www.w3.org/2000/svg" viewBox="0 0 460.9 512"><title>viber</title><path d="M307.2,0H204.8C106,0,25.6,80.4,25.6,179.2V256A179.3,179.3,0,0,0,128,418v85.5c0,7.4,9.3,11.3,14.6,6l74.3-74.3h90.3c98.8,0,179.2-80.4,179.2-179.2V179.2C486.4,80.4,406,0,307.2,0Z" transform="translate(-25.6)" style="fill:#665cac"/><path d="M153.6,418A179.3,179.3,0,0,1,51.2,256V179.2C51.2,80.4,131.6,0,230.4,0H204.8C106,0,25.6,80.4,25.6,179.2V256A179.3,179.3,0,0,0,128,418v85.5c0,7.4,9.3,11.3,14.6,6l11-11Z" transform="translate(-25.6)" style="fill:#523494"/><path d="M384.8,318.1l-7.7-41.6a8.5,8.5,0,0,0-6.7-6.8l-60.3-12.1a8.5,8.5,0,0,0-7.7,2.3l-24.5,24.5c-41.3-18.5-64.2-41.5-84.4-84.6l24.4-24.4a8.5,8.5,0,0,0,2.3-7.7l-12.1-60.3a8.5,8.5,0,0,0-6.8-6.7L159.8,93a8.6,8.6,0,0,0-3.4.1,59.6,59.6,0,0,0-29,16c-13.8,13.8-19.1,33.9-15.3,58.2,6.4,40.8,26.4,97.6,63.3,134.6l.5.5c37,36.9,93.8,56.9,134.6,63.3a95.4,95.4,0,0,0,14.8,1.2c17.7,0,32.5-5.6,43.4-16.5a59.6,59.6,0,0,0,16-29A8.6,8.6,0,0,0,384.8,318.1Z" transform="translate(-25.6)" style="fill:#fff"/><polygon points="184 183.8 192.3 175.5 192.4 175.5 184 183.8 184 183.8" style="fill:#e5e5e5"/><rect x="292.2" y="264.2" width="11.9" transform="translate(-125 288.2) rotate(-45)" style="fill:#e5e5e5"/><path d="M341.5,350.9a95.4,95.4,0,0,1-14.8-1.2c-40.8-6.4-97.6-26.4-134.6-63.3l-.5-.5c-36.9-37-56.9-93.8-63.3-134.6-3.1-19.6-.2-36.5,8.3-49.6a59.8,59.8,0,0,0-9.1,7.5c-13.8,13.8-19.1,33.9-15.3,58.2,6.4,40.8,26.4,97.6,63.3,134.6l.5.5c37,36.9,93.8,56.9,134.6,63.3a95.4,95.4,0,0,0,14.8,1.2c17.7,0,32.5-5.6,43.4-16.5a59.8,59.8,0,0,0,7.5-9.1C366.6,347.7,354.9,350.9,341.5,350.9Z" transform="translate(-25.6)" style="fill:#e5e5e5"/><path d="M273.1,145.1a8.5,8.5,0,1,0,0,17.1,34.2,34.2,0,0,1,34.1,34.1,8.5,8.5,0,0,0,17.1,0A51.3,51.3,0,0,0,273.1,145.1Z" transform="translate(-25.6)" style="fill:#fff"/><path d="M273.1,110.9a86.8,86.8,0,0,0-9.5.5,8.5,8.5,0,1,0,1.9,17,69.4,69.4,0,0,1,7.6-.4,68.4,68.4,0,0,1,68.3,68.3,69.4,69.4,0,0,1-.4,7.6,8.5,8.5,0,1,0,17,1.9,86.8,86.8,0,0,0,.5-9.5A85.4,85.4,0,0,0,273.1,110.9Z" transform="translate(-25.6)" style="fill:#fff"/><path d="M273.1,76.8c-3,0-6.1.1-9.2.3a8.5,8.5,0,1,0,1.3,17c2.6-.2,5.3-.3,7.9-.3a102.5,102.5,0,0,1,99.7,126.1,8.5,8.5,0,0,0,16.6,3.9,119.6,119.6,0,0,0-116.3-147Z" transform="translate(-25.6)" style="fill:#fff"/></svg>