<svg xmlns="http://www.w3.org/2000/svg" viewBox="0 0 89.8 89.8"><title>vk (1)</title><path d="M89.8,44.9A44.9,44.9,0,1,1,44.9,0,44.9,44.9,0,0,1,89.8,44.9Zm0,0" style="fill:#4d76a1"/><path d="M43.2,64.6h3.5a3,3,0,0,0,1.6-.7,2.6,2.6,0,0,0,.5-1.5s-.1-4.7,2.1-5.4,4.9,4.6,7.9,6.6a5.6,5.6,0,0,0,3.9,1.2h7.9s4.1-.3,2.2-3.5c-.2-.3-1.1-2.4-5.9-6.8s-4.3-3.8,1.7-11.8c3.6-4.8,5.1-7.8,4.6-9s-3.1-.9-3.1-.9H61.2a2,2,0,0,0-1.1.2,2.5,2.5,0,0,0-.8,1A51.1,51.1,0,0,1,56,40.7c-3.9,6.7-5.5,7.1-6.2,6.6s-1.1-3.9-1.1-6c0-6.5,1-9.2-1.9-9.9a15,15,0,0,0-4.1-.4c-3.2,0-5.8,0-7.4.8s-1.8,1.6-1.3,1.7a4,4,0,0,1,2.6,1.3c.9,1.2.9,4,.9,4s.5,7.6-1.2,8.6-2.8-.7-6.4-6.8a56.6,56.6,0,0,1-3.2-6.6,2.6,2.6,0,0,0-.7-1,3.7,3.7,0,0,0-1.4-.5H16.3s-1.3,0-1.7.6,0,1.5,0,1.5,6.6,15.4,14.1,23.2,14.6,6.7,14.6,6.7Zm0,0" style="fill:#fff;fill-rule:evenodd"/></svg>