<svg xmlns="http://www.w3.org/2000/svg" viewBox="0 0 496 496"><title>whatsapp</title><rect x="87" y="96" width="327" height="308" style="fill:#fff"/><path d="M256.1,8h-.2C119.2,8,8,119.2,8,256A246.3,246.3,0,0,0,55.2,401.4L24.3,493.5,119.6,463a246,246,0,0,0,136.4,41C392.8,504,504,392.8,504,256S392.8,8,256.1,8ZM400.4,358.2c-6,16.9-29.7,30.9-48.7,35-13,2.8-29.9,5-86.9-18.7C191.9,344.4,145,270.3,141.4,265.5s-29.4-39.2-29.4-74.8,18.1-52.9,25.4-60.4,15.9-8.9,25.4-8.9c3.1,0,5.8.1,8.3.3,7.3.3,10.9.8,15.7,12.3,6,14.4,20.6,50,22.3,53.6s3.5,8.6,1,13.4-4.4,7.2-8,11.4-7.2,7.4-10.8,12-7.2,8.2-2.9,15.5,18.8,30.9,40.2,50c27.7,24.6,50.1,32.5,58.2,35.9,6,2.5,13.1,1.9,17.5-2.8s12.4-15.9,19.4-25.7c5-7,11.2-7.9,17.8-5.4s42.1,19.8,49.4,23.5,12.1,5.4,13.8,8.5S406.4,341.3,400.4,358.2Z" transform="translate(-8 -8)" style="fill:#7fd371"/><path d="M8,256A246.3,246.3,0,0,0,55.2,401.4L24.3,493.5,119.6,463a246,246,0,0,0,136.4,41C392.8,504,504,392.8,504,256S392.8,8,256.1,8h-.2M400.4,358.2c-6,16.9-29.7,30.9-48.7,35-13,2.8-29.9,5-86.9-18.7C191.9,344.4,145,270.3,141.4,265.5s-29.4-39.2-29.4-74.8,18.1-52.9,25.4-60.4,15.9-8.9,25.4-8.9c3.1,0,5.8.1,8.3.3,7.3.3,10.9.8,15.7,12.3,6,14.4,20.6,50,22.3,53.6s3.5,8.6,1,13.4-4.4,7.2-8,11.4-7.2,7.4-10.8,12-7.2,8.2-2.9,15.5,18.8,30.9,40.2,50c27.7,24.6,50.1,32.5,58.2,35.9,6,2.5,13.1,1.9,17.5-2.8s12.4-15.9,19.4-25.7c5-7,11.2-7.9,17.8-5.4s42.1,19.8,49.4,23.5,12.1,5.4,13.8,8.5S406.4,341.3,400.4,358.2Z" transform="translate(-8 -8)" style="fill:#6dbc61"/><path d="M335.4,21.1c63.2,54.1,104.5,136.7,104.5,206.6,0,38.5-12.6,74.6-34.4,105.5a88.4,88.4,0,0,1-5.2,24.9c-6,16.9-29.7,30.9-48.7,35a65.9,65.9,0,0,1-12.1,1.6C298.1,420.7,246.6,436,190.9,436c-50.2,0-96.9-12.5-136-33.8L24.3,493.5,119.6,463a246,246,0,0,0,136.4,41C392.8,504,504,392.8,504,256,504,147,433.3,54.2,335.4,21.1Z" transform="translate(-8 -8)" style="fill:#549b45"/><path d="M341.3,291.9c1.7.6,5.1,2.1,9.3,4.1L185,130.2q.9,1.6,1.7,3.8c6,14.4,20.6,50,22.3,53.6s3.5,8.6,1,13.4-4.4,7.2-8,11.4-7.2,7.4-10.8,12-7.2,8.2-2.9,15.5,18.8,30.9,40.2,50c27.7,24.6,50.1,32.5,58.2,35.9,6,2.5,13.1,1.9,17.5-2.8s12.4-15.9,19.4-25.7C328.5,290.2,334.8,289.4,341.3,291.9Z" transform="translate(-8 -8)" style="fill:#549b45"/></svg>