<svg xmlns="http://www.w3.org/2000/svg" viewBox="0 0 48 48"><title>idea</title><path d="M35.1 8.6l-.1-.4-8-8-.3-.1H.8a.8.8 0 0 0-.8.7v46.4a.8.8 0 0 0 .8.8h33.6a.8.8 0 0 0 .8-.8V8.8a.3.3 0 0 0-.1-.2zM32.5 8h-5.3V2.7zM18.4 46.4v-3.2H20a.8.8 0 0 0 .8-.8v-3.2h.8a.8.8 0 0 0 .8-.8v-5.9a11.1 11.1 0 0 0 6.4-10.1 11.2 11.2 0 0 0-22.4 0 11.1 11.1 0 0 0 6.4 10.1v5.9a.8.8 0 0 0 .8.8h.8v3.2a.8.8 0 0 0 .8.8h1.6v3.2H1.6V1.6h24v7.2a.8.8 0 0 0 .8.8h7.2v36.8zm-4-12V32a.8.8 0 0 0-.5-.7 9.6 9.6 0 1 1 7.4 0 .7.7 0 0 0-.5.7v5.6h-6.4V36h4v-1.6zm1.6 4.8h3.2v2.4H16zm0 0"/><path d="M18.4 21.1l2.2-2.1-1.1-1.1-1.8 1.8-1.8-1.8-1.3 1.1 2.2 2.2v8.5h1.6zM47.2 0h-4.8a.8.8 0 0 0-.8.8V4h-2.4a.8.8 0 0 0-.8.8v24H40V5.6h1.6V40a.8.8 0 0 0 .2.5l2.3 7a.7.7 0 0 0 1.4 0l2.3-7a1.1 1.1 0 0 0 .2-.5V.8a.8.8 0 0 0-.8-.8zm-4 10.4h3.2v28.8h-3.2zm0-8.8h3.2v7.2h-3.2zm1.6 43l-1.3-3.8h2.6zM4.8 4h4v1.6h-4zm0 3.2h10.4v1.6H4.8z"/></svg>