<?xml version="1.0" encoding="utf-8"?><svg xmlns="http://www.w3.org/2000/svg" xmlns:xlink="http://www.w3.org/1999/xlink"><symbol viewBox="0 0 487.15 513.32" id="available" xmlns="http://www.w3.org/2000/svg"><title>available</title><path d="M108 230.5a33.6 33.6 0 0 0-40.9-5.1V109.8a33.3 33.3 0 0 0-4.2-16.3 17.2 17.2 0 0 1 22.7 16.3v85a8.2 8.2 0 0 0 16.3 0v-85a33.5 33.5 0 0 0-51-28.6 33.5 33.5 0 0 0-51 28.7v161a55.5 55.5 0 0 0 6.2 23.7l.2.3 100.9 162.4a40.1 40.1 0 0 1 4 15.6v30.8a8.2 8.2 0 0 0 16.3 0v-30.8a55.4 55.4 0 0 0-6.2-23.7l-.2-.3L20.6 286.5a40.2 40.2 0 0 1-4-15.6V109.8a17.2 17.2 0 1 1 34.4 0v145a33.4 33.4 0 0 0 9.6 23.1l78.1 78.1a8.202 8.202 0 1 0 11.6-11.6l-78.1-78.1A17.218 17.218 0 1 1 96.6 242l97.2 96c10.8 10.8 19.9 32.9 19.9 48.1v117.7a8.2 8.2 0 1 0 16.3 0V386.2c0-19.6-10.9-45.8-24.8-59.7zM453.6 76.3a33.3 33.3 0 0 0-17.4 4.9 33.5 33.5 0 0 0-51 28.6v85a8.2 8.2 0 0 0 16.3 0v-85a17.2 17.2 0 0 1 22.7-16.3 33.3 33.3 0 0 0-4.2 16.3v115.6a33.6 33.6 0 0 0-40.9 5.1l-97.3 96.1c-13.9 13.9-24.7 40.1-24.7 59.7v117.5a8.2 8.2 0 0 0 16.3 0V386.2c0-15.3 9.1-37.3 19.9-48.1l97.4-96.1a17.2 17.2 0 1 1 24.3 24.3l-78.1 78.1a8.202 8.202 0 1 0 11.6 11.6l78.1-78.1a33.4 33.4 0 0 0 9.8-23.1v-145a17.2 17.2 0 0 1 34.4 0v161.1a40.2 40.2 0 0 1-4 15.6L366 448.9l-.2.3a55.4 55.4 0 0 0-6.2 23.7v30.8a8.2 8.2 0 1 0 16.3 0v-30.8a40.1 40.1 0 0 1 4-15.6l100.7-162.4.2-.3a55.5 55.5 0 0 0 6.2-23.7V109.8a33.6 33.6 0 0 0-33.4-33.5z"/><path d="M126.5 212.4h234.2a8.2 8.2 0 0 0 8.2-8.2v-43.5a8.2 8.2 0 0 0-8.2-8.2H358v-16.3h2.7a8.2 8.2 0 0 0 8.2-8.2V84.4a8.2 8.2 0 0 0-8.2-8.2H358V59.9h2.7a8.2 8.2 0 0 0 8.2-8.2V8.2a8.2 8.2 0 0 0-8.2-8.2H126.5a8.2 8.2 0 0 0-8.2 8.2v43.5a8.2 8.2 0 0 0 8.2 8.2h2.7v16.4h-2.7a8.2 8.2 0 0 0-8.2 8.2V128a8.2 8.2 0 0 0 8.2 8.2h2.7v16.3h-2.7a8.2 8.2 0 0 0-8.2 8.2v43.6a8.2 8.2 0 0 0 8.2 8.1zm226-16.3H134.7v-27.2h217.8zM134.7 16.3h217.8v27.3H134.7zm10.9 43.6h196v16.4h-196zm0 76.3h138.9a8.2 8.2 0 0 0 0-16.3H134.7V92.6h217.8v27.2h-35.4a8.2 8.2 0 1 0 0 16.3h24.5v16.3h-196z"/></symbol><symbol viewBox="0 0 46.43 46.23" id="call" xmlns="http://www.w3.org/2000/svg"><title>call</title><path d="M44.3 35.7l-7-7a3.6 3.6 0 0 0-5.1.1l-3.5 3.5-.7-.4a35.1 35.1 0 0 1-8.5-6.1 35.2 35.2 0 0 1-6.1-8.5l-.4-.7 2.4-2.4 1.2-1.2a3.6 3.6 0 0 0-.1-5l-7-7a3.6 3.6 0 0 0-5.1.1l-2 2h.1A11.4 11.4 0 0 0 .9 6a11.8 11.8 0 0 0-.8 2.9C-.8 16.6 2.7 23.6 12.2 33c13.1 13.2 23.7 12.2 24.2 12.1a11.8 11.8 0 0 0 2.9-.7 11.3 11.3 0 0 0 2.9-1.6l2-2a3.7 3.7 0 0 0 .1-5.1zm0 0"/></symbol><symbol viewBox="0 0 382.7 391.5" id="contract" xmlns="http://www.w3.org/2000/svg"><title>contract</title><path d="M220.6 24.6v55.2h55.3zm0 0"/><path d="M174.6 357.9l32.3-106.6 93.5-93.5v-57.7h-90.1a10.3 10.3 0 0 1-10.2-10.2V0H0v391.5h300.8v-85.4l-31.4 31.4zM45.6 57.8h125.5a10.2 10.2 0 0 1 0 20.5H45.6a10.2 10.2 0 1 1 0-20.5zm0 61.8h125.5a10.2 10.2 0 0 1 0 20.5H45.6a10.3 10.3 0 0 1-10.2-10.2 10.2 10.2 0 0 1 10.2-10.2zm0 81.8a10.2 10.2 0 1 1 0-20.5h125.5a10.2 10.2 0 0 1 0 20.5zm0 0"/><path d="M337.7 149.4L232.1 255.1l45.4 45.4 105.2-105.7zm0 0M259.1 310.7l-37.6-37.6-16.5 54.4zm0 0"/></symbol><symbol viewBox="0 0 16 12" id="double-arrow" xmlns="http://www.w3.org/2000/svg"><path fill-rule="evenodd" d="M9.6 6.321L8 7.585l-8-6.32L1.6 0l6.399 5.057L14.399 0l1.6 1.264-6.4 5.057H9.6zm-1.601 3.15l6.4-5.057 1.6 1.265-6.4 5.057H9.6L8 12 0 5.679l1.6-1.264 6.399 5.056z"/></symbol><symbol viewBox="0 0 406.2 390.3" id="drawing" xmlns="http://www.w3.org/2000/svg"><title>drawing</title><path d="M255 187.4a3.8 3.8 0 0 0-3.8-3.8h-53.6V84.1h31.2L114.4 5.7 0 84.1h29.3v107.2h107.1v-76.6h38.3v76.5h15.4v38.3a3.8 3.8 0 1 0 7.6 0v-38.2h53.4a3.8 3.8 0 0 0 3.8-3.8zM113.5 153H67.6v-38.3h45.9zm0 0M118.4 6.5l1 .9 1.8.3h130a3.8 3.8 0 0 0 0-7.6h-130a3.8 3.8 0 0 0-3.8 3.8v.2a3.8 3.8 0 0 0 1 2.4zm0 0"/><path d="M259 38.3L247.3 18l-11.6 20.3h7.9V153h-7.9l11.7 20.2L259 153h-7.9V38.3zm0 0M167 221.8H67.6V214l-20.3 11.7 20.2 11.7v-7.8H167v7.8l20.2-11.7L167 214zm0 0M235.4 340.5l4.5 49.9 40.8-26.8 97.2-190.4-45.3-23.1zm0 0M389.4 110.4l-2.3-1.2c-10.6-5.4-26.2-7.5-31.5 3l-10.8 21.1 45.3 23.1 10.8-21.1c5.3-10.4-.9-19.5-11.5-25zm0 0"/></symbol><symbol viewBox="0 0 11.2 8" id="envelope" xmlns="http://www.w3.org/2000/svg"><title>envelope</title><path d="M5.6 5.6L4.2 4.4.3 7.8l.5.2h9.6l.5-.2L7 4.4zm0 0"/><path d="M10.9.2l-.5-.2H.8L.3.2l5.3 4.6zm0 0M0 .7v6.6l3.9-3.2zm0 0M7.3 4.1l3.9 3.3V.7zm0 0"/></symbol><symbol viewBox="0 0 268.31 209.58" id="house" xmlns="http://www.w3.org/2000/svg"><title>house</title><path d="M264.8 142.5l-42.3-31.9V97.8a5.6 5.6 0 0 0-2.2-4.5l-83.4-62.8a5.6 5.6 0 0 0-6.7 0L46.8 93.3a5.6 5.6 0 0 0-2.2 4.5v12.8L2.2 142.5A5.6 5.6 0 0 0 0 147v56.6a5.6 5.6 0 0 0 5.6 5.6h255.8a5.6 5.6 0 0 0 5.6-5.6V147a5.6 5.6 0 0 0-2.2-4.5zM139.5 198h-12.1v-28.3h12.1zm11.2 0v-33.9a5.6 5.6 0 0 0-5.6-5.6h-23.3a5.6 5.6 0 0 0-5.6 5.6v33.8H55.8v-97.3L133.5 42l77.7 58.6V198zM11.2 149.8l33.4-25.2v73.3H11.2zM255.8 198h-33.4v-73.4l33.4 25.2zm0 0"/><path d="M9 106.5l124.5-93.9L258 106.5a5.6 5.6 0 1 0 6.7-8.9L136.9 1.1a5.6 5.6 0 0 0-6.7 0L2.2 97.6a5.6 5.6 0 1 0 6.8 8.9zm0 0"/></symbol><symbol viewBox="0 0 48 48.2" id="idea" xmlns="http://www.w3.org/2000/svg"><title>idea</title><path d="M35.1 8.6l-.1-.4-8-8-.3-.1H.8a.8.8 0 0 0-.8.7v46.4a.8.8 0 0 0 .8.8h33.6a.8.8 0 0 0 .8-.8V8.8a.3.3 0 0 0-.1-.2zM32.5 8h-5.3V2.7zM18.4 46.4v-3.2H20a.8.8 0 0 0 .8-.8v-3.2h.8a.8.8 0 0 0 .8-.8v-5.9a11.1 11.1 0 0 0 6.4-10.1 11.2 11.2 0 0 0-22.4 0 11.1 11.1 0 0 0 6.4 10.1v5.9a.8.8 0 0 0 .8.8h.8v3.2a.8.8 0 0 0 .8.8h1.6v3.2H1.6V1.6h24v7.2a.8.8 0 0 0 .8.8h7.2v36.8zm-4-12V32a.8.8 0 0 0-.5-.7 9.6 9.6 0 1 1 7.4 0 .7.7 0 0 0-.5.7v5.6h-6.4V36h4v-1.6zm1.6 4.8h3.2v2.4H16zm0 0"/><path d="M18.4 21.1l2.2-2.1-1.1-1.1-1.8 1.8-1.8-1.8-1.3 1.1 2.2 2.2v8.5h1.6zm0 0M47.2 0h-4.8a.8.8 0 0 0-.8.8V4h-2.4a.8.8 0 0 0-.8.8v24H40V5.6h1.6V40a.8.8 0 0 0 .2.5l2.3 7a.7.7 0 0 0 1.4 0l2.3-7a1.1 1.1 0 0 0 .2-.5V.8a.8.8 0 0 0-.8-.8zm-4 10.4h3.2v28.8h-3.2zm0-8.8h3.2v7.2h-3.2zm1.6 43l-1.3-3.8h2.6zm0 0M4.8 4h4v1.6h-4zM4.8 7.2h10.4v1.6H4.8z"/></symbol><symbol viewBox="0 0 530.19 504.12" id="industry" xmlns="http://www.w3.org/2000/svg"><title>industry</title><path d="M392.5 486.5V347l102.4-43.9v183.4zm110.9 17.1a8.5 8.5 0 0 0 8.5-8.5V290.2a8.5 8.5 0 0 0-11.9-7.8l-119.4 51.2a8.5 8.5 0 0 0-5.2 7.8V495a8.5 8.5 0 0 0 8.5 8.5z"/><path d="M273.1 486.5V347l102.4-43.9v183.4zm110.9 17a8.5 8.5 0 0 0 8.5-8.5V290.2a8.5 8.5 0 0 0-11.9-7.8l-119.4 51.2a8.5 8.5 0 0 0-5.2 7.8V495a8.5 8.5 0 0 0 8.5 8.5zM152.6 486.5H18.1l15.1-136.6h104.2zm9.5 17.1a8.5 8.5 0 0 0 8.5-9.5l-17.1-153.6a8.5 8.5 0 0 0-8.5-7.6H25.6a8.5 8.5 0 0 0-8.5 7.6L.1 494.1a8.5 8.5 0 0 0 8.5 9.5z"/><path d="M51.9 332.9l15.8-213.4H103l15.8 213.4zm76.1 17a8.5 8.5 0 0 0 8.5-9.2l-17.1-230.3a8.5 8.5 0 0 0-8.5-7.9H59.7a8.5 8.5 0 0 0-8.5 7.9l-17 230.4a8.5 8.5 0 0 0 8.5 9.2z"/><path d="M136.6 342.3l17.1 153.6a8.5 8.5 0 0 0 8.5 7.6h102.3a8.5 8.5 0 0 0 8.5-8.5V341.4a8.5 8.5 0 0 0-8.5-8.5H145.1a8.5 8.5 0 0 0-8.5 9.4zm18 7.6H256v136.6h-86.2z"/><path d="M187.7 332.9v-65a3.2 3.2 0 0 1 3.2-3.2h27.7a3.2 3.2 0 0 1 3.2 3.2v65zm42.7 17a8.5 8.5 0 0 0 8.5-8.5v-73.6a20.3 20.3 0 0 0-20.3-20.3H191a20.3 20.3 0 0 0-20.3 20.3v73.6a8.5 8.5 0 0 0 8.5 8.5zM307.2 503.5h34.1a8.5 8.5 0 0 0 8.5-8.5v-59.7a8.5 8.5 0 0 0-8.5-8.5h-34.1a8.5 8.5 0 0 0-8.5 8.5V495a8.5 8.5 0 0 0 8.5 8.5zm8.5-59.7h17.1v42.7h-17.1zM426.7 503.5h34.1a8.5 8.5 0 0 0 8.5-8.5v-59.7a8.5 8.5 0 0 0-8.5-8.5h-34.1a8.5 8.5 0 0 0-8.5 8.5V495a8.5 8.5 0 0 0 8.5 8.5zm8.5-59.7h17.1v42.7h-17.1zM59.7 503.5h51.2a8.5 8.5 0 0 0 8.5-8.5v-68.3a8.5 8.5 0 0 0-8.5-8.5H59.7a8.5 8.5 0 0 0-8.5 8.5V495a8.5 8.5 0 0 0 8.5 8.5zm8.5-17.1v-51.1h34.1v51.2zM372 151.8a123.8 123.8 0 0 0 12.7-11.7c14.3 11.2 29.3 14.6 41.6 13.6l7.2-.2C497.3 152 530 75.8 485.8 30l-2.2-2.1a8.5 8.5 0 0 0-14.2 6.3c0 22.3-5.2 34.6-13.3 39.9a16.9 16.9 0 0 1-10.8 2.9h-1.5c-16 0-32.4-14.6-46.1-36.2-8.1-12.7-17.8-23-29.1-30.6S347.3-.5 340.8.1c-20.9.1-37.9 7.3-51.3 19.2a77.8 77.8 0 0 0-5 4.9c-4-5.5-9.9-9.6-17.1-12.2a57.8 57.8 0 0 0-20-3.4c-19.7 0-36.1 3.4-49.2 9.3a67.6 67.6 0 0 0-13.6 7.8h-13.9c-29.6 0-51.9 8.8-67.7 23.6-9.7 9.1-15 18.3-17.2 24.9A8.5 8.5 0 0 0 97 84.8l3.4-1.2c2.8-1 5.9-1.9 9.2-2.8a115.9 115.9 0 0 1 19.4-3.7c15.1-1.4 23.2 1.8 24.7 9.9a85.7 85.7 0 0 0 1.8 9.7 108.3 108.3 0 0 0 7.8 22.3c10.3 21.3 26.7 34.7 50 34.7a159.2 159.2 0 0 0 26.8-1.3c11.7-1.7 21-4.7 26.7-9.9 12.8 12.8 25.2 20.8 37 25 8.2 2.9 15.2 3.8 20.5 3.3 17.3-.2 33.1-7.4 47.7-19zM170.7 42.7h17.1a8.5 8.5 0 0 0 6-2.5c1.5-1.4 5.2-4 11.4-6.8 11-4.9 24.9-7.8 42.3-7.8a41.9 41.9 0 0 1 14.2 2.4c7.6 2.8 11.4 7.1 11.4 14.7 0 9.1 12.3 11.9 16.2 3.7a35.8 35.8 0 0 1 2.6-4.2A59.1 59.1 0 0 1 301 32c10.4-9.3 23.7-14.9 40.4-14.9h1.6c-.1 0 1.1.1 3 .7a48.4 48.4 0 0 1 13 6.4c9.2 6.2 17.3 14.8 24.2 25.6 16.6 25.9 36.4 43.8 59.9 44.1a33.8 33.8 0 0 0 22.4-5.6c9.1-6.1 15.5-16.2 18.7-30.9 15.9 34.4-8.6 78.2-51.1 79.1h-7.7a37.5 37.5 0 0 1-11.6-1 47.9 47.9 0 0 1-19.6-9.9q-2.1-1.7-4.1-3.8a8.5 8.5 0 0 0-12.8.8c-.7.9-2 2.5-4.1 4.7a107.1 107.1 0 0 1-11.7 10.9c-12 9.6-24.7 15.2-37.2 15.2h-1.4c-2.8.2-7.3-.3-13.2-2.4-9.4-3.4-19.7-10-30.5-20.8l-8.5-8.5a8.5 8.5 0 0 0-14.6 6c0 2.4-6.2 5.7-18.3 7.4a140.2 140.2 0 0 1-22.8 1.2h-1.2c-16.1 0-27.3-9.1-35-25.1a91.5 91.5 0 0 1-6.5-18.8 76.8 76.8 0 0 1-1.6-8.3c-3.8-19.9-20.4-26.4-43.1-24.4a118 118 0 0 0-13.3 2c12.9-11.8 31.1-19 56.4-19z"/><path d="M270.6 122l-17.1-17.1a8.556 8.556 0 0 0-12.1 12.1l17.1 17.1a8.556 8.556 0 1 0 12.1-12.1zM179.2 384.1v68.3a8.55 8.55 0 1 0 17.1 0v-68.3a8.55 8.55 0 1 0-17.1 0zM221.9 384.1v68.3a8.55 8.55 0 0 0 17.1 0v-68.3a8.55 8.55 0 1 0-17.1 0zM307.2 401.1h34.1a8.5 8.5 0 0 0 8.5-8.5v-34.1a8.5 8.5 0 0 0-8.5-8.5h-34.1a8.5 8.5 0 0 0-8.5 8.5v34.1a8.5 8.5 0 0 0 8.5 8.5zm8.5-17.1v-17h17.1v17.1zM426.7 401.1h34.1a8.5 8.5 0 0 0 8.5-8.5v-34.1a8.5 8.5 0 0 0-8.5-8.5h-34.1a8.5 8.5 0 0 0-8.5 8.5v34.1a8.5 8.5 0 0 0 8.5 8.5zm8.5-17.1v-17h17.1v17.1z"/></symbol><symbol viewBox="0 0 24.8 24.8" id="instagram" xmlns="http://www.w3.org/2000/svg"><title>instagram</title><path d="M18.5 24.8H6.3A6.4 6.4 0 0 1 0 18.5V6.3A6.4 6.4 0 0 1 6.3 0h12.2a6.4 6.4 0 0 1 6.3 6.3v12.2a6.4 6.4 0 0 1-6.3 6.3zM6.3 1.4a4.9 4.9 0 0 0-4.9 4.9v12.2a4.9 4.9 0 0 0 4.9 4.9h12.2a4.9 4.9 0 0 0 4.9-4.9V6.3a4.9 4.9 0 0 0-4.9-4.9H6.3zm0 0"/><path d="M24.1 9.3h-8.7a.7.7 0 1 1 0-1.4h8.7a.7.7 0 0 1 0 1.4zm0 0M9.3 9.3H.7a.7.7 0 1 1 0-1.4h8.6a.7.7 0 1 1 0 1.4zm0 0"/><path d="M12.4 18a5.5 5.5 0 1 1 5.6-5.6 5.5 5.5 0 0 1-5.6 5.6zm0-9.7a4.1 4.1 0 1 0 4.1 4.1 4.1 4.1 0 0 0-4.1-4.1zm0 0M20.4 7.5h-3.1a.7.7 0 0 1-.7-.7V3.6a.7.7 0 0 1 .7-.7h3.2a.7.7 0 0 1 .7.7v3.2a.7.7 0 0 1-.7.7zM18 6.1h1.8V4.3H18zm0 0"/></symbol><symbol viewBox="0 0 24.9 22" id="instructor" xmlns="http://www.w3.org/2000/svg"><title>instructor</title><path d="M7.1 3.1A3.1 3.1 0 1 1 4 0a3.1 3.1 0 0 1 3.1 3.1zm0 0"/><path d="M24.6 3.9h-7.5v-.8h-2v.8H7.6V5h.5v2.2l-1.2-.5H5.2L4 8 2.8 6.7l-2.5.4-.1 5.6h1v1.2h.2v6.7h-.2l-1.2.2V22h1.1l1.2-.2v.2h1.4v-6.9h.8V22h1.3v-.2L7 22h1.1v-1.2l-1.2-.3h-.2v-6.7h.2l.3-5.1 1 .4V15h7.3v1.9l-4 4.6h1.4l2.7-3.1v3.1h.8v-3.1l2.7 3.1h1.5l-4.1-4.6V15h8.1V5h.3V4zm-.7 10.3H8.8V9.5l3 1.3V9l-3-1.4V5h15.1zm0 0"/></symbol><symbol viewBox="0 0 517.68 315.29" id="log-i" xmlns="http://www.w3.org/2000/svg"><title>log</title><path d="M134.3 266.5a7.5 7.5 0 0 0 7.5 7.5h97.6a7.5 7.5 0 0 0 0-15h-97.6a7.5 7.5 0 0 0-7.5 7.5zM484 100.4a7.5 7.5 0 0 0-11.8 9.3 114.1 114.1 0 0 1 24.8 71.4A115.3 115.3 0 1 1 381.6 65.8a114.3 114.3 0 0 1 69.9 23.6 7.5 7.5 0 0 0 9.1-11.9 129.1 129.1 0 0 0-79-26.7H176.1L137.3 12a41 41 0 0 0-63.2 51.5 130.3 130.3 0 0 0-40.5 205 7.5 7.5 0 1 0 11.1-10.1A115.3 115.3 0 0 1 84.6 75.2l53.1 53.1a40.7 40.7 0 0 0 14.2 9.2 7.5 7.5 0 0 0 5.4-14 25.8 25.8 0 0 1-9-5.9l-36-36A41 41 0 0 0 149.1 45l18.6 18.6L185.1 81a26 26 0 0 1-6.3 41.4 7.5 7.5 0 1 0 7 13.3 41 41 0 0 0 9.9-65.3l-4.6-4.6H321a131.3 131.3 0 0 0-43.4 37h-38.2a7.5 7.5 0 0 0 0 15h28.4A130.2 130.2 0 0 0 321 296.4H130.3a114.8 114.8 0 0 1-63.9-19.3 7.5 7.5 0 1 0-8.3 12.5 129.7 129.7 0 0 0 72.2 21.8h251.4A130.5 130.5 0 0 0 512 181.1a129 129 0 0 0-28-80.7zm-357.3-41a26 26 0 1 1 0-36.8 26 26 0 0 1 0 36.7zm88.6 118.1h-30.5a46.7 46.7 0 0 1-33.2-13.8 61.6 61.6 0 0 0-43.8-18.2H52.2a7.5 7.5 0 0 0 0 15h55.6a46.7 46.7 0 0 1 33.2 13.8 61.6 61.6 0 0 0 43.8 18.2h30.4a7.5 7.5 0 1 0 0-15zm-93.5 41a7.5 7.5 0 0 0-7.5-7.5H52.2a7.5 7.5 0 0 0 0 15h62.1a7.5 7.5 0 0 0 7.5-7.6zm300.9-10.6a7.5 7.5 0 0 0-12.6-8.2 33.9 33.9 0 0 1-47.4 9.6 7.5 7.5 0 1 0-8.4 12.4 48.9 48.9 0 0 0 68.3-13.9zm-19.9 60.9l1.9-.2a90.3 90.3 0 0 0 58.9-125.3 7.5 7.5 0 0 0-13.6 6.3 75.3 75.3 0 0 1-49.1 104.5 7.5 7.5 0 0 0 1.9 14.8zm-36-118a7.5 7.5 0 0 0-6.6-13.4 49 49 0 0 0-25.7 56.1 7.5 7.5 0 0 0 7.3 5.6l1.9-.2a7.5 7.5 0 0 0 5.4-9.1 34 34 0 0 1 17.8-38.9zm77.5-24.4a7.5 7.5 0 0 0-.3-10.6 90.2 90.2 0 1 0-80 153.8h1.5a7.5 7.5 0 0 0 1.5-14.9 75.3 75.3 0 1 1 66.6-128.3 7.5 7.5 0 0 0 10.5 0zm-54.7 13.4a7.5 7.5 0 0 0 4.3 9.7 34.1 34.1 0 0 1 21.8 31.7 7.5 7.5 0 0 0 15 0 49.2 49.2 0 0 0-31.4-45.7 7.5 7.5 0 0 0-9.8 4.3z"/></symbol><symbol viewBox="0 0 8 5" id="nav-arrow" xmlns="http://www.w3.org/2000/svg"><path fill-rule="evenodd" d="M0 .93L4 5 8 .93 7.097 0 4 3.151.902 0 0 .93z"/></symbol><symbol viewBox="0 0 313.1 387.67" id="quality" xmlns="http://www.w3.org/2000/svg"><title>quality</title><path d="M311.8 334.7L262 214.5a6.008 6.008 0 1 0-11.1 4.6l45 108.6-41-11.9a6 6 0 0 0-6.9 2.9l-20.6 37.4-48.3-116.5A121 121 0 1 0 59.2 193L.5 334.7a6 6 0 0 0 7.2 8.1l48.4-14L80.4 373a6 6 0 0 0 5.3 3.1h.3a6 6 0 0 0 5.2-3.7L137.7 260a6.008 6.008 0 0 0-11.1-4.6L84.9 356.2l-20.6-37.5a6 6 0 0 0-6.9-2.9l-41 11.9 51.4-124.3a120.6 120.6 0 0 0 88.3 38.4c3.6 0 7.1-.2 10.7-.5l54.3 131a6 6 0 0 0 5.2 3.7h.3a6 6 0 0 0 5.3-3.1l24.3-44.2 48.4 14a6 6 0 0 0 7.2-8.1zM47.2 120.9a108.9 108.9 0 1 1 108.9 108.9A109 109 0 0 1 47.2 120.9zm0 0"/><path d="M225.5 98.4a6 6 0 0 0-4.7-4.1l-40.4-6.8-19-36.3a6 6 0 0 0-10.6 0l-18.9 36.3-40.4 6.8a6 6 0 0 0-3.3 10.1l28.7 29.2-6 40.5a6 6 0 0 0 8.6 6.3l36.6-18.2 36.6 18.3a6 6 0 0 0 2.7.6 6 6 0 0 0 5.9-6.9l-6-40.5 28.7-29.3a6 6 0 0 0 1.4-6.1zm-40.8 29a6 6 0 0 0-1.7 5.1l4.8 32.1-29-14.4a6 6 0 0 0-5.3 0l-29 14.4 4.8-32.1a6 6 0 0 0-1.7-5.1l-22.7-23.1 32-5.4a6 6 0 0 0 4.3-3.1l15-28.7 15 28.7a6 6 0 0 0 4.3 3.1l32 5.4zm0 0"/><path d="M247 126.9a6 6 0 0 0-6.7 5.2 84.9 84.9 0 1 1 0-22.4 6.004 6.004 0 1 0 11.9-1.6 96.9 96.9 0 1 0 0 25.6 6 6 0 0 0-5.2-6.7zm0 0"/></symbol><symbol viewBox="0 0 210.24 210.14" id="search" xmlns="http://www.w3.org/2000/svg"><title>search</title><path d="M195.3 171.7l-43.5-43.5-.7-.6a82.4 82.4 0 1 0-23.5 23.5l.6.7 43.5 43.5a16.7 16.7 0 1 0 23.7-23.7zm-113-35.6a53.8 53.8 0 1 1 53.8-53.8 53.8 53.8 0 0 1-53.8 53.8zm0 0"/></symbol><symbol viewBox="0 0 513.45 513.11" id="send-mail" xmlns="http://www.w3.org/2000/svg"><title>send-mail</title><path d="M4.4 465.2a15 15 0 0 0 21.2 0l94.6-94.6A15 15 0 1 0 99 349.4L4.4 444a15 15 0 0 0 0 21.2zM4.4 380.3a15 15 0 0 0 21.2 0l52.2-52.2a15 15 0 1 0-21.2-21.2L4.4 359.1a15 15 0 0 0 0 21.2zM68 507.6l94.6-94.6a15 15 0 0 0-21.2-21.2l-94.6 94.6A15 15 0 0 0 68 507.6zM152.9 507.6l52.2-52.2a15 15 0 0 0-21.2-21.2l-52.2 52.2a15 15 0 0 0 21.2 21.2zM327.9 223.9V0a42.5 42.5 0 0 0-16.8 10L99 222.1a44.7 44.7 0 0 0-10.5 16.8h224.4a15 15 0 0 0 15-15zM512 153.9c-2.2-6.2-5.1-11.9-10-16.7L374.8 10A42.1 42.1 0 0 0 358 0v153.9z"/><path d="M502 200.9c4.8-4.8 7.8-10.6 10-16.8H358V224a45.2 45.2 0 0 1-45.1 45h-39.8v154.5a44.6 44.6 0 0 0 16.8-10.5zM243 423.5V269H88.5A44.3 44.3 0 0 0 99 285.7L226.3 413a44.3 44.3 0 0 0 16.7 10.5z"/></symbol><symbol viewBox="0 0 545.2 537.6" id="settings" xmlns="http://www.w3.org/2000/svg"><title>settings</title><path d="M410.7 307.5c-10.2 0-17.9 2.6-25.6 2.6l-74.2-74.2 61.4-61.4 79.4-28.2 58.9-94.7c2.6-5.1 2.6-12.8 0-15.4L479.8 5.4C474.7.3 467 .3 461.9 2.9l-97.3 56.3-30.7 81.9-61.4 61.4-69.1-74.2c0-7.7 2.6-15.4 2.6-25.6 0-66.6-64-115.2-128-99.8l38.4 38.4c20.5 20.5 20.5 51.2 0 71.7s-51.2 20.5-71.7 0L3.6 77.1C-16.8 151.3 52.3 223 129.1 200l74.2 74.2-30.7 30.7c-17.9-5.1-35.8 0-48.6 12.8l-105 105c-20.5 20.5-23 51.2-5.1 71.7 20.5 23 53.8 23 74.2 2.6l107.5-107.6c12.8-12.8 17.9-33.3 12.8-48.6l30.7-30.7 74.2 74.2c-2.6 7.7-2.6 17.9-2.6 25.6 0 66.6 64 115.2 128 99.8l-38.4-38.4c-20.5-20.5-20.5-51.2 0-71.7s51.2-20.5 71.7 0l38.4 38.4c18-66.5-33.2-130.5-99.7-130.5z"/></symbol><symbol viewBox="0 0 45.54 48.1" id="stopwatch" xmlns="http://www.w3.org/2000/svg"><title>stopwatch</title><path d="M23.9 30.4a2.8 2.8 0 0 0 2.1-1.2l7.5-10.4a.8.8 0 0 0-1.1-1.1L22 25.2a2.9 2.9 0 0 0 1.7 5.2zm-1.5-2.9a1.3 1.3 0 0 1 .5-.9l6.3-4.6-4.6 6.3a1.3 1.3 0 0 1-2.3-.8zm0 0"/><path d="M41.8 15.7h-.1a21.8 21.8 0 0 0-2.9-3.8l1.8-1.9 1.1 1.1 3.4-3.4-3.4-3.4-3.4 3.4 1.1 1.1-1.7 1.7a21.7 21.7 0 0 0-3.8-2.9h-.1A21.4 21.4 0 0 0 25.6 5V4h1.2a2 2 0 1 0 0-4h-7.2a2 2 0 1 0 0 4h1.2v.9l-2.6.4a.8.8 0 1 0 .4 1.6l2.2-.4h1.6V8A.8.8 0 0 0 24 8V6.4a19.8 19.8 0 0 1 8.4 2.3l-.8 1.4a.8.8 0 0 0 .3 1.1h.4a.8.8 0 0 0 .7-.4l.8-1.4a20.1 20.1 0 0 1 6.2 6.3l-1.4.8A.8.8 0 0 0 39 18h.4l1.4-.8a19.9 19.9 0 0 1 2.3 8.5h-1.6a.8.8 0 1 0 0 1.6h1.6a19.9 19.9 0 0 1-2.3 8.5l-1.4-.8a.8.8 0 0 0-.8 1.4l1.4.8a20.2 20.2 0 0 1-6.2 6.2l-.8-1.5a.8.8 0 0 0-1.4.8l.8 1.4a19.9 19.9 0 0 1-8.4 2.3v-1.6a.8.8 0 1 0-1.6 0v1.6a20.2 20.2 0 0 1-3.8-.5.8.8 0 1 0-.4 1.6 21.7 21.7 0 0 0 4.8.6h.1a21.5 21.5 0 0 0 10.6-2.9h.1a21.7 21.7 0 0 0 7.8-7.8h.1a21.5 21.5 0 0 0 0-21.5zm-.1-9l1.1 1.1-1.1 1.1-1.1-1.2zM22.4 4.8V2.4h-2.8a.4.4 0 1 1 0-.8h7.2a.4.4 0 1 1 0 .8H24v2.4h-1.6zm0 0M16 11.2h-4a.8.8 0 1 0 0 1.6h4a.8.8 0 1 0 0-1.6zm0 0M16 16.8H8a.8.8 0 1 0 0 1.6h8a.8.8 0 1 0 0-1.6zm0 0M16 22.4H4A.8.8 0 0 0 4 24h12a.8.8 0 1 0 0-1.6zm0 0M16 28H.8a.8.8 0 0 0 0 1.6H16a.8.8 0 1 0 0-1.6zm0 0M16 33.6H5.6a.8.8 0 1 0 0 1.6H16a.8.8 0 1 0 0-1.6zm0 0M16 39.2h-5.6a.8.8 0 0 0 0 1.6H16a.8.8 0 1 0 0-1.6zm0 0"/></symbol><symbol viewBox="0 0 35.45 29.65" id="twitter" xmlns="http://www.w3.org/2000/svg"><title>twitter-social-outlined-logo</title><path d="M35 3.4a.8.8 0 0 0-.9 0l-.8.4a3.8 3.8 0 0 0 1.1-2.5.8.8 0 0 0-.5-.7.8.8 0 0 0-.8.1A7 7 0 0 1 29.2 2a7.6 7.6 0 0 0-12.7 5.6 7 7 0 0 0 .1.9c-7-.2-12.7-6.8-12.8-6.8a.8.8 0 0 0-1.3.1 7.5 7.5 0 0 0 .2 7.9.8.8 0 0 0-.7 0 .8.8 0 0 0-.4.7 7.3 7.3 0 0 0 2.9 6.2l-.3.2a.8.8 0 0 0-.2.8 7.1 7.1 0 0 0 5.1 5A10.7 10.7 0 0 1 3 24.3H.9a.8.8 0 0 0-.6 1.4A18.5 18.5 0 0 0 11.4 29a22.1 22.1 0 0 0 4.2-.4c15.6-3.8 16.2-17.8 16.2-20.3 2.9-2.7 3.4-3.7 3.5-4a.8.8 0 0 0-.3-.9zm-4.5 4a.8.8 0 0 0-.3.6c0 .1.9 15.3-15 19a20.5 20.5 0 0 1-3.8.3A18.8 18.8 0 0 1 4 25.8a10.8 10.8 0 0 0 7.5-3.2.8.8 0 0 0-.6-1.3 5.8 5.8 0 0 1-4.9-3 4.3 4.3 0 0 0 1.8-.3.8.8 0 0 0-.2-1.5 5.9 5.9 0 0 1-4.4-4.7 3.9 3.9 0 0 0 1.9.3.8.8 0 0 0 .4-1.4c-.2-.1-3.6-3.1-2.1-7.1 2 2 7.5 6.9 14.1 6.5a.8.8 0 0 0 .6-.3.8.8 0 0 0 .1-.7 6.2 6.2 0 0 1-.2-1.5 6 6 0 0 1 10.3-4.2l.6.2h.1a8.5 8.5 0 0 0 2.6-.4l-1.4 1.2a.8.8 0 0 0 .6 1.4l1.4-.2-1.8 1.7zm0 0"/></symbol><symbol viewBox="0 0 514.8 299.9" id="vk-t" xmlns="http://www.w3.org/2000/svg"><title>vk</title><path d="M262.7 298.6c-36.3 0-67.6-7.8-95.4-23.7s-49.3-36.5-72.1-67.3C62.9 163.8 34.6 113.3 3.4 43.9-1 34.2-1.1 26 2.9 19.6S14.4 9.9 25 9.7c22.5-.4 45.5-.4 70.5 0 13.1.2 23.3 7.6 28.7 20.9 13.2 32.4 28.4 60.5 46.4 86 4.5 6.4 9.2 13 15.4 17.2a11.8 11.8 0 0 0 2.2 1.2 11.9 11.9 0 0 0 1.2-2.2c1.7-4.1 2.8-9 3.4-15.4 2.1-24 1.7-43.8-1.1-62.3-1.4-9.5-6-14.5-14.8-16.2-2.5-.5-10.1-1.9-12.7-9.2s2.4-13 4.3-15.2C174.9 7 183 0 198.2 0h80.9l2 .2c20.3 4 23.7 16.9 25.4 29.7a10.2 10.2 0 0 1 .1 1.4v90.2c-.1 4 2.3 11.6 4.5 13 1.1-.5 3.3-2.9 4.6-4.3l.9-.9c19.6-20.8 33.2-45.8 43.8-67.5 5.6-11.2 10.4-23.1 14.4-33.3 5.1-12.8 14.4-19.2 27.9-19h77.8a49.9 49.9 0 0 1 8.6.6c6.2 1.1 15 3.4 19.8 11.2s2.8 16.7.9 22.7c-6.6 20.9-19 38.1-31 54.7l-1.4 1.9c-6.1 8.5-12.6 17-18.8 25.1s-14.2 18.7-21 28.2c-4.5 6.3-6.5 10.6-6.2 13.5s3.1 6.9 8.8 12.5l13 12.4c12.2 11.5 24.8 23.4 35.9 36.8 6.1 7.4 13.1 16.3 18.5 26.7s5.2 21.2.2 30.1a24 24 0 0 1-19.5 12.5h-71.7c-19.8 1.5-37.7-5.7-53.3-21.6-6.9-7-13.4-14.3-19.8-21.4l-9.1-10.1a58.9 58.9 0 0 0-10.9-9.8c-2.3-1.5-4.4-2.2-5.6-1.9s-2.5 1.8-3.8 4.1c-4.5 8.1-5.7 17.5-6.3 29-1 21.8-10.1 30.7-32.5 31.8q-6.4.1-12.6.1zM20.4 30.7a17.3 17.3 0 0 0 1.6 4.9c30.6 68 58.2 117.3 89.6 159.9 21 28.5 41.9 48.1 65.8 61.8 27.5 15.7 59.2 22.5 96.9 20.7 7.9-.4 10.2-1.5 10.9-2.2s1.8-2.5 2.2-10.1c.6-12.5 2.1-25.6 8.8-37.9 5.2-9.4 11.9-12.9 16.7-14s12.4-1.4 21.7 4.6a77.5 77.5 0 0 1 14.9 13.1l9.3 10.3c6.2 6.9 12.6 14.1 19.1 20.7 11.5 11.7 23.4 16.7 37.5 15.5h72a3.7 3.7 0 0 0 2.8-2.1c1.2-2.1 1.8-6.2-.6-10.7-4.5-8.6-10.6-16.5-16-23-10.4-12.4-22-23.4-34.2-35l-13.2-12.6c-18.5-18-19.8-31.7-5-52.4 6.9-9.7 14.2-19.4 21.3-28.7s12.5-16.7 18.5-25l1.4-1.9c11.6-16 22.5-31.1 28.1-48.9 1.1-3.5 1.1-5.2 1.1-5.8s-2-1.1-5.7-1.7a33.2 33.2 0 0 0-5.2-.3h-78.1c-4.6-.1-6.5.8-8.6 6.1-4.2 10.6-9.2 22.9-15.1 34.8-11.3 23-25.8 49.7-47.3 72.5l-.8.9c-4.6 4.9-13.1 14-25.9 9.8h-.3c-14.1-5.2-18.3-24.1-18.1-32.7V32c-.5-3.2-1.2-7.3-2.5-9s-1.2-1.6-5.7-2.6h-80.1a15.9 15.9 0 0 0-7.7 1.5c11.7 5.3 19.2 15.7 21.3 30.1 3 20.1 3.4 41.4 1.2 67.1-.8 8.6-2.3 15.5-4.9 21.6-4 9.4-9.9 12.9-14.2 14.1s-11.1 1.5-19.5-4.3-15.4-15-20.4-22.1c-19-26.8-34.9-56.2-48.6-90.1-2.9-7.1-6.8-8.1-10.1-8.2-24.7-.4-47.5-.4-69.8 0a17.4 17.4 0 0 0-5.1.6z"/><path d="M65.3 77.7a10.2 10.2 0 0 1-9.1-5.6L51.6 63a10.2 10.2 0 1 1 18.3-9l4.5 8.9a10.2 10.2 0 0 1-9.1 14.8zM130.2 185a10.2 10.2 0 0 1-8.2-4.1 696.9 696.9 0 0 1-49.3-77.5 10.2 10.2 0 0 1 17.9-9.9 676.7 676.7 0 0 0 47.8 75.2 10.2 10.2 0 0 1-8.2 16.3z"/></symbol></svg>