<svg xmlns="http://www.w3.org/2000/svg" viewBox="0 0 487.1 512"><title>available</title><path d="M120.4,230.5a33.6,33.6,0,0,0-40.9-5.1V109.8a33.3,33.3,0,0,0-4.2-16.3A17.2,17.2,0,0,1,98,109.8v85a8.2,8.2,0,0,0,16.3,0v-85a33.5,33.5,0,0,0-51-28.6,33.5,33.5,0,0,0-51,28.7V270.9a55.5,55.5,0,0,0,6.2,23.7l.2.3L119.6,457.3a40.1,40.1,0,0,1,4,15.6v30.8a8.2,8.2,0,0,0,16.3,0V472.9a55.4,55.4,0,0,0-6.2-23.7l-.2-.3L33,286.5a40.2,40.2,0,0,1-4-15.6V109.8a17.2,17.2,0,1,1,34.4,0V254.2c0,.2,0,.4,0,.6A33.4,33.4,0,0,0,73,277.9L151.1,356a8.2,8.2,0,1,0,11.6-11.6L84.6,266.3a17.2,17.2,0,1,1,24.4-24.3l97.2,96c10.8,10.8,19.9,32.9,19.9,48.1V503.8a8.2,8.2,0,1,0,16.3,0V386.2c0-19.6-10.9-45.8-24.8-59.7Z" transform="translate(-12.4 0)"/><path d="M466,76.3a33.3,33.3,0,0,0-17.4,4.9,33.5,33.5,0,0,0-51,28.6v85a8.2,8.2,0,0,0,16.3,0v-85a17.2,17.2,0,0,1,22.7-16.3,33.3,33.3,0,0,0-4.2,16.3V225.4a33.6,33.6,0,0,0-40.9,5.1l-97.3,96.1c-13.9,13.9-24.7,40.1-24.7,59.7V503.8a8.2,8.2,0,0,0,16.3,0V386.2c0-15.3,9.1-37.3,19.9-48.1L403.1,242a17.2,17.2,0,1,1,24.3,24.3l-78.1,78.1A8.2,8.2,0,1,0,360.9,356L439,277.9a33.4,33.4,0,0,0,9.8-23.1c0-.2,0-.4,0-.6V109.8a17.2,17.2,0,0,1,34.4,0V270.9a40.2,40.2,0,0,1-4,15.6L378.4,448.9l-.2.3a55.4,55.4,0,0,0-6.2,23.7v30.8a8.2,8.2,0,1,0,16.3,0V472.9a40.1,40.1,0,0,1,4-15.6L493,294.9l.2-.3a55.5,55.5,0,0,0,6.2-23.7V109.8A33.6,33.6,0,0,0,466,76.3Z" transform="translate(-12.4 0)"/><path d="M138.9,212.4H373.1a8.2,8.2,0,0,0,8.2-8.2V160.7a8.2,8.2,0,0,0-8.2-8.2h-2.7V136.2h2.7a8.2,8.2,0,0,0,8.2-8.2V84.4a8.2,8.2,0,0,0-8.2-8.2h-2.7V59.9h2.7a8.2,8.2,0,0,0,8.2-8.2V8.2A8.2,8.2,0,0,0,373.1,0H138.9a8.2,8.2,0,0,0-8.2,8.2V51.7a8.2,8.2,0,0,0,8.2,8.2h2.7V76.3h-2.7a8.2,8.2,0,0,0-8.2,8.2V128a8.2,8.2,0,0,0,8.2,8.2h2.7v16.3h-2.7a8.2,8.2,0,0,0-8.2,8.2v43.6A8.2,8.2,0,0,0,138.9,212.4Zm226-16.3H147.1V168.9H364.9ZM147.1,16.3H364.9V43.6H147.1ZM158,59.9H354V76.3H158Zm0,76.3H296.9a8.2,8.2,0,0,0,0-16.3H147.1V92.6H364.9v27.2H329.5a8.2,8.2,0,1,0,0,16.3H354v16.3H158Z" transform="translate(-12.4 0)"/></svg>