<svg xmlns="http://www.w3.org/2000/svg" xmlns:xlink="http://www.w3.org/1999/xlink" viewBox="0 0 45.3 45.2"><defs><clipPath id="a" transform="translate(0 0)"><rect width="45.8" height="46" style="fill:none"/></clipPath></defs><title>call</title><g style="clip-path:url(#a)"><path d="M44.3,35.7l-7-7a3.6,3.6,0,0,0-5.1.1l-3.5,3.5-.7-.4a35.1,35.1,0,0,1-8.5-6.1,35.2,35.2,0,0,1-6.1-8.5l-.4-.7,2.4-2.4,1.2-1.2A3.6,3.6,0,0,0,16.5,8l-7-7a3.6,3.6,0,0,0-5.1.1l-2,2h.1A11.4,11.4,0,0,0,.9,6,11.8,11.8,0,0,0,.1,8.9c-.9,7.7,2.6,14.7,12.1,24.1C25.3,46.2,35.9,45.2,36.4,45.1a11.8,11.8,0,0,0,2.9-.7,11.3,11.3,0,0,0,2.9-1.6h0l2-2a3.7,3.7,0,0,0,.1-5.1Zm0,0" transform="translate(0 0)" style="fill:#020202"/></g></svg>