<svg xmlns="http://www.w3.org/2000/svg" xmlns:xlink="http://www.w3.org/1999/xlink" viewBox="0 0 402.9 390.4"><defs><clipPath id="a"><rect width="403" height="391" style="fill:none"/></clipPath></defs><title>drawing</title><path d="M255,187.4a3.8,3.8,0,0,0-3.8-3.8H197.6V84.1h31.2L114.4,5.7,0,84.1H29.3V191.3H136.4V114.7h38.3v76.5h15.4v38.3a3.8,3.8,0,1,0,7.6,0V191.3h53.4a3.8,3.8,0,0,0,3.8-3.8ZM113.5,153H67.6V114.7h45.9Zm0,0"/><path d="M118.4,6.5l1,.9,1.8.3h130a3.8,3.8,0,0,0,0-7.6h-130a3.8,3.8,0,0,0-3.8,3.8v.2a3.8,3.8,0,0,0,1,2.4Zm0,0"/><path d="M259,38.3,247.3,18,235.7,38.3h7.9V153h-7.9l11.7,20.2L259,153h-7.9V38.3Zm0,0"/><path d="M167,221.8H67.6V214L47.3,225.7l20.2,11.7v-7.8H167v7.8l20.2-11.7L167,214Zm0,0"/><g style="clip-path:url(#a)"><path d="M235.4,340.5l4.5,49.9,40.8-26.8,97.2-190.4-45.3-23.1Zm0,0"/><path d="M389.4,110.4l-2.3-1.2c-10.6-5.4-26.2-7.5-31.5,3l-10.8,21.1,45.3,23.1,10.8-21.1c5.3-10.4-.9-19.5-11.5-25Zm0,0"/></g></svg>