<svg xmlns="http://www.w3.org/2000/svg" xmlns:xlink="http://www.w3.org/1999/xlink" viewBox="0 0 267 209.2"><defs><clipPath id="a" transform="translate(0 -0.6)"><rect width="266.9" height="210.72" style="fill:none"/></clipPath></defs><title>house</title><g style="clip-path:url(#a)"><path d="M264.8,143.1l-42.3-31.9V98.4a5.6,5.6,0,0,0-2.2-4.5L136.9,31.1a5.6,5.6,0,0,0-6.7,0L46.8,93.9a5.6,5.6,0,0,0-2.2,4.5v12.8L2.2,143.1A5.6,5.6,0,0,0,0,147.6v56.6a5.6,5.6,0,0,0,5.6,5.6H261.4a5.6,5.6,0,0,0,5.6-5.6V147.6a5.6,5.6,0,0,0-2.2-4.5ZM139.5,198.6H127.4V170.3h12.1Zm11.2,0V164.7a5.6,5.6,0,0,0-5.6-5.6H121.8a5.6,5.6,0,0,0-5.6,5.6v33.8H55.8V101.2l77.7-58.6,77.7,58.6v97.4ZM11.2,150.4l33.4-25.2v73.3H11.2Zm244.6,48.2H222.4V125.2l33.4,25.2Zm0,0" transform="translate(0 -0.6)"/><path d="M9,107.1,133.5,13.2,258,107.1a5.6,5.6,0,1,0,6.7-8.9L136.9,1.7a5.6,5.6,0,0,0-6.7,0L2.2,98.2A5.6,5.6,0,1,0,9,107.1Zm0,0" transform="translate(0 -0.6)"/></g></svg>