<svg xmlns="http://www.w3.org/2000/svg" viewBox="0 0 48 48"><title>idea</title><path d="M35.1,8.6h0L35,8.2l-8-8L26.7.1H.8A.8.8,0,0,0,0,.8V47.2a.8.8,0,0,0,.8.8H34.4a.8.8,0,0,0,.8-.8V8.8a.3.3,0,0,0-.1-.2ZM32.5,8H27.2V2.7ZM18.4,46.4V43.2H20a.8.8,0,0,0,.8-.8V39.2h.8a.8.8,0,0,0,.8-.8V32.5a11.1,11.1,0,0,0,6.4-10.1,11.2,11.2,0,0,0-22.4,0,11.1,11.1,0,0,0,6.4,10.1v5.9a.8.8,0,0,0,.8.8h.8v3.2a.8.8,0,0,0,.8.8h1.6v3.2H1.6V1.6h24V8.8a.8.8,0,0,0,.8.8h7.2V46.4Zm-4-12V32a.8.8,0,0,0-.5-.7,9.6,9.6,0,1,1,7.4,0,.7.7,0,0,0-.5.7v5.6H14.4V36h4V34.4ZM16,39.2h3.2v2.4H16Zm0,0"/><path d="M18.4,21.1,20.6,19l-1.1-1.1-1.8,1.8-1.8-1.8L14.6,19l2.2,2.2v8.5h1.6Zm0,0"/><path d="M47.2,0H42.4a.8.8,0,0,0-.8.8V4H39.2a.8.8,0,0,0-.8.8v24H40V5.6h1.6V40a.8.8,0,0,0,.2.5l2.3,7a.7.7,0,0,0,1.4,0l2.3-7A1.1,1.1,0,0,0,48,40V.8a.8.8,0,0,0-.8-.8Zm-4,10.4h3.2V39.2H43.2Zm0-8.8h3.2V8.8H43.2Zm1.6,43-1.3-3.8h2.6Zm0,0"/><rect x="4.8" y="4" width="4" height="1.6"/><rect x="4.8" y="7.2" width="10.4" height="1.6"/></svg>