<svg xmlns="http://www.w3.org/2000/svg" viewBox="0 0 512 503.5"><title>industry</title><path d="M392.5,486.6V347.1l102.4-43.9V486.6Zm110.9,17.1a8.5,8.5,0,0,0,8.5-8.5V290.3a8.5,8.5,0,0,0-11.9-7.8L380.6,333.7a8.5,8.5,0,0,0-5.2,7.8V495.1a8.5,8.5,0,0,0,8.5,8.5Z" transform="translate(0 -0.1)"/><path d="M273.1,486.6V347.1l102.4-43.9V486.6ZM384,503.6a8.5,8.5,0,0,0,8.5-8.5V290.3a8.5,8.5,0,0,0-11.9-7.8L261.2,333.7a8.5,8.5,0,0,0-5.2,7.8V495.1a8.5,8.5,0,0,0,8.5,8.5Z" transform="translate(0 -0.1)"/><path d="M152.6,486.6H18.1L33.2,350H137.4Zm9.5,17.1a8.5,8.5,0,0,0,8.5-9.5L153.5,340.6a8.5,8.5,0,0,0-8.5-7.6H25.6a8.5,8.5,0,0,0-8.5,7.6L.1,494.2a8.5,8.5,0,0,0,8.5,9.5Z" transform="translate(0 -0.1)"/><path d="M51.9,333,67.7,119.6H103L118.8,333ZM128,350a8.5,8.5,0,0,0,8.5-9.2L119.4,110.5a8.5,8.5,0,0,0-8.5-7.9H59.7a8.5,8.5,0,0,0-8.5,7.9L34.2,340.9a8.5,8.5,0,0,0,8.5,9.2Z" transform="translate(0 -0.1)"/><path d="M136.6,342.4,153.7,496a8.5,8.5,0,0,0,8.5,7.6H264.5a8.5,8.5,0,0,0,8.5-8.5V341.5a8.5,8.5,0,0,0-8.5-8.5H145.1A8.5,8.5,0,0,0,136.6,342.4Zm18,7.6H256V486.6H169.8Z" transform="translate(0 -0.1)"/><path d="M187.7,333v-65a3.2,3.2,0,0,1,3.2-3.2h27.7a3.2,3.2,0,0,1,3.2,3.2v65ZM230.4,350a8.5,8.5,0,0,0,8.5-8.5V267.9a20.3,20.3,0,0,0-20.3-20.3H191a20.3,20.3,0,0,0-20.3,20.3v73.6a8.5,8.5,0,0,0,8.5,8.5Z" transform="translate(0 -0.1)"/><path d="M307.2,503.6h34.1a8.5,8.5,0,0,0,8.5-8.5V435.4a8.5,8.5,0,0,0-8.5-8.5H307.2a8.5,8.5,0,0,0-8.5,8.5v59.7A8.5,8.5,0,0,0,307.2,503.6Zm8.5-59.7h17.1v42.7H315.7Z" transform="translate(0 -0.1)"/><path d="M426.7,503.6h34.1a8.5,8.5,0,0,0,8.5-8.5V435.4a8.5,8.5,0,0,0-8.5-8.5H426.7a8.5,8.5,0,0,0-8.5,8.5v59.7A8.5,8.5,0,0,0,426.7,503.6Zm8.5-59.7h17.1v42.7H435.2Z" transform="translate(0 -0.1)"/><path d="M59.7,503.6h51.2a8.5,8.5,0,0,0,8.5-8.5V426.8a8.5,8.5,0,0,0-8.5-8.5H59.7a8.5,8.5,0,0,0-8.5,8.5v68.3A8.5,8.5,0,0,0,59.7,503.6Zm8.5-17.1V435.4h34.1v51.2Z" transform="translate(0 -0.1)"/><path d="M372,151.9a123.8,123.8,0,0,0,12.7-11.7c14.3,11.2,29.3,14.6,41.6,13.6l7.2-.2c63.8-1.5,96.5-77.7,52.3-123.5L483.6,28a8.5,8.5,0,0,0-14.2,6.3c0,22.3-5.2,34.6-13.3,39.9a16.9,16.9,0,0,1-10.8,2.9h-1.5c-16,0-32.4-14.6-46.1-36.2-8.1-12.7-17.8-23-29.1-30.6S347.3-.4,340.8.2c-20.9.1-37.9,7.3-51.3,19.2-1.8,1.6-3.5,3.3-5,4.9-4-5.5-9.9-9.6-17.1-12.2a57.8,57.8,0,0,0-20-3.4c-19.7,0-36.1,3.4-49.2,9.3a67.6,67.6,0,0,0-13.6,7.8H170.7c-29.6,0-51.9,8.8-67.7,23.6-9.7,9.1-15,18.3-17.2,24.9A8.5,8.5,0,0,0,97,84.9l3.4-1.2c2.8-1,5.9-1.9,9.2-2.8A115.9,115.9,0,0,1,129,77.2c15.1-1.4,23.2,1.8,24.7,9.9a85.7,85.7,0,0,0,1.8,9.7,108.3,108.3,0,0,0,7.8,22.3c10.3,21.3,26.7,34.7,50,34.7a159.2,159.2,0,0,0,26.8-1.3c11.7-1.7,21-4.7,26.7-9.9,12.8,12.8,25.2,20.8,37,25,8.2,2.9,15.2,3.8,20.5,3.3C341.6,170.7,357.4,163.5,372,151.9ZM170.7,42.8h17.1a8.5,8.5,0,0,0,6-2.5c1.5-1.4,5.2-4,11.4-6.8,11-4.9,24.9-7.8,42.3-7.8a41.9,41.9,0,0,1,14.2,2.4c7.6,2.8,11.4,7.1,11.4,14.7,0,9.1,12.3,11.9,16.2,3.7a35.8,35.8,0,0,1,2.6-4.2A59.1,59.1,0,0,1,301,32.1c10.4-9.3,23.7-14.9,40.4-14.9h1.6c-.1,0,1.1.1,3,.7A48.4,48.4,0,0,1,359,24.3c9.2,6.2,17.3,14.8,24.2,25.6,16.6,25.9,36.4,43.8,59.9,44.1a33.8,33.8,0,0,0,22.4-5.6c9.1-6.1,15.5-16.2,18.7-30.9,15.9,34.4-8.6,78.2-51.1,79.1h-7.7a37.5,37.5,0,0,1-11.6-1,47.9,47.9,0,0,1-19.6-9.9q-2.1-1.7-4.1-3.8a8.5,8.5,0,0,0-12.8.8c-.7.9-2,2.5-4.1,4.7a107.1,107.1,0,0,1-11.7,10.9c-12,9.6-24.7,15.2-37.2,15.2h-1.4c-2.8.2-7.3-.3-13.2-2.4-9.4-3.4-19.7-10-30.5-20.8l-8.5-8.5a8.5,8.5,0,0,0-14.6,6c0,2.4-6.2,5.7-18.3,7.4a140.2,140.2,0,0,1-22.8,1.2h-1.2c-16.1,0-27.3-9.1-35-25.1a91.5,91.5,0,0,1-6.5-18.8,76.8,76.8,0,0,1-1.6-8.3c-3.8-19.9-20.4-26.4-43.1-24.4a118,118,0,0,0-13.3,2C127.2,50,145.4,42.8,170.7,42.8Z" transform="translate(0 -0.1)"/><path d="M270.6,122.1l-17.1-17.1a8.5,8.5,0,0,0-12.1,12.1l17.1,17.1a8.5,8.5,0,1,0,12.1-12.1Z" transform="translate(0 -0.1)"/><path d="M179.2,384.2v68.3a8.5,8.5,0,1,0,17.1,0V384.2a8.5,8.5,0,1,0-17.1,0Z" transform="translate(0 -0.1)"/><path d="M221.9,384.2v68.3a8.5,8.5,0,0,0,17.1,0V384.2a8.5,8.5,0,1,0-17.1,0Z" transform="translate(0 -0.1)"/><path d="M307.2,401.2h34.1a8.5,8.5,0,0,0,8.5-8.5V358.6a8.5,8.5,0,0,0-8.5-8.5H307.2a8.5,8.5,0,0,0-8.5,8.5v34.1A8.5,8.5,0,0,0,307.2,401.2Zm8.5-17.1V367.1h17.1v17.1Z" transform="translate(0 -0.1)"/><path d="M426.7,401.2h34.1a8.5,8.5,0,0,0,8.5-8.5V358.6a8.5,8.5,0,0,0-8.5-8.5H426.7a8.5,8.5,0,0,0-8.5,8.5v34.1A8.5,8.5,0,0,0,426.7,401.2Zm8.5-17.1V367.1h17.1v17.1Z" transform="translate(0 -0.1)"/></svg>