<svg xmlns="http://www.w3.org/2000/svg" xmlns:xlink="http://www.w3.org/1999/xlink" viewBox="0 0 24.9 22"><defs><clipPath id="a"><rect y="0.1" width="25" height="21.87" style="fill:none"/></clipPath></defs><title>instructor</title><g style="clip-path:url(#a)"><path d="M7.1,3.1A3.1,3.1,0,1,1,4,0,3.1,3.1,0,0,1,7.1,3.1Zm0,0"/></g><path d="M24.6,3.9H17.1V3.1h-2v.8H7.6V5h.5V7.2L6.9,6.7H5.2L4,8,2.8,6.7.3,7.1.2,12.7H1.2v1.2h.2v6.7H1.2L0,20.8V22H1.1l1.2-.2V22H3.7V15.1h.8V22H5.8v-.2l1.2.2H8.1V20.8l-1.2-.3H6.7V13.8h.2l.3-5.1,1,.4V15h7.3v1.9l-4,4.6h1.4l2.7-3.1v3.1h.8V18.4l2.7,3.1h1.5l-4.1-4.6V15h8.1V5h.3v-1Zm-.7,10.3H8.8V9.5l3,1.3V9l-3-1.4V5H23.9Zm0,0"/></svg>