<svg xmlns="http://www.w3.org/2000/svg" viewBox="0 0 24.8 24.8"><title>instagram</title><path d="M18.5,24.8H6.3A6.4,6.4,0,0,1,0,18.5V6.3A6.4,6.4,0,0,1,6.3,0H18.5a6.4,6.4,0,0,1,6.3,6.3V18.5a6.4,6.4,0,0,1-6.3,6.3ZM6.3,1.4A4.9,4.9,0,0,0,1.4,6.3V18.5a4.9,4.9,0,0,0,4.9,4.9H18.5a4.9,4.9,0,0,0,4.9-4.9V6.3a4.9,4.9,0,0,0-4.9-4.9H6.3Zm0,0" style="fill:#010002"/><path d="M24.1,9.3H15.4a.7.7,0,1,1,0-1.4h8.7a.7.7,0,0,1,0,1.4Zm0,0" style="fill:#010002"/><path d="M9.3,9.3H.7a.7.7,0,1,1,0-1.4H9.3a.7.7,0,1,1,0,1.4Zm0,0" style="fill:#010002"/><path d="M12.4,18A5.5,5.5,0,1,1,18,12.4,5.5,5.5,0,0,1,12.4,18Zm0-9.7a4.1,4.1,0,1,0,4.1,4.1,4.1,4.1,0,0,0-4.1-4.1Zm0,0" style="fill:#010002"/><path d="M20.4,7.5H17.3a.7.7,0,0,1-.7-.7V3.6a.7.7,0,0,1,.7-.7h3.2a.7.7,0,0,1,.7.7V6.8a.7.7,0,0,1-.7.7ZM18,6.1h1.8V4.3H18Zm0,0" style="fill:#010002"/></svg>