<svg id="Capa_1" data-name="Capa 1" xmlns="http://www.w3.org/2000/svg" viewBox="0 0 512 311.4"><title>log</title><path d="M134.3,266.5a7.5,7.5,0,0,0,7.5,7.5h97.6a7.5,7.5,0,0,0,0-15H141.8A7.5,7.5,0,0,0,134.3,266.5ZM484,100.4a7.5,7.5,0,0,0-11.8,9.3A114.1,114.1,0,0,1,497,181.1,115.3,115.3,0,1,1,381.6,65.8h0a114.3,114.3,0,0,1,69.9,23.6,7.5,7.5,0,0,0,9.1-11.9,129.1,129.1,0,0,0-79-26.7H176.1L137.3,12A41,41,0,0,0,74.1,63.5,130.3,130.3,0,0,0,33.6,268.5a7.5,7.5,0,1,0,11.1-10.1A115.3,115.3,0,0,1,84.6,75.2l53.1,53.1a40.7,40.7,0,0,0,14.2,9.2,7.5,7.5,0,0,0,5.4-14,25.8,25.8,0,0,1-9-5.9l-36-36A41,41,0,0,0,149.1,45l18.6,18.6h0L185.1,81a26,26,0,0,1-6.3,41.4,7.5,7.5,0,1,0,7,13.3,41,41,0,0,0,9.9-65.3l-4.6-4.6H321a131.3,131.3,0,0,0-43.4,37H239.4a7.5,7.5,0,0,0,0,15h28.4A130.2,130.2,0,0,0,321,296.4H130.3a114.8,114.8,0,0,1-63.9-19.3,7.5,7.5,0,1,0-8.3,12.5,129.7,129.7,0,0,0,72.2,21.8H381.7A130.5,130.5,0,0,0,512,181.1,129,129,0,0,0,484,100.4Zm-357.3-41a26,26,0,1,1,0-36.8h0a26,26,0,0,1,0,36.7Zm88.6,118.1H184.8a46.7,46.7,0,0,1-33.2-13.8,61.6,61.6,0,0,0-43.8-18.2H52.2a7.5,7.5,0,0,0,0,15h55.6A46.7,46.7,0,0,1,141,174.3a61.6,61.6,0,0,0,43.8,18.2h30.4a7.5,7.5,0,1,0,0-15Zm-93.5,41a7.5,7.5,0,0,0-7.5-7.5H52.2a7.5,7.5,0,0,0,0,15h62.1A7.5,7.5,0,0,0,121.8,218.4Zm300.9-10.6a7.5,7.5,0,0,0-12.6-8.2,33.9,33.9,0,0,1-47.4,9.6,7.5,7.5,0,1,0-8.4,12.4,48.9,48.9,0,0,0,68.3-13.9Zm-19.9,60.9,1.9-.2a90.3,90.3,0,0,0,58.9-125.3,7.5,7.5,0,0,0-13.6,6.3,75.3,75.3,0,0,1-49.1,104.5,7.5,7.5,0,0,0,1.9,14.8Zm-36-118a7.5,7.5,0,0,0-6.6-13.4,49,49,0,0,0-25.7,56.1,7.5,7.5,0,0,0,7.3,5.6l1.9-.2a7.5,7.5,0,0,0,5.4-9.1,34,34,0,0,1,17.8-38.9Zm77.5-24.4a7.5,7.5,0,0,0-.3-10.6A90.2,90.2,0,1,0,364,269.6h1.5a7.5,7.5,0,0,0,1.5-14.9,75.3,75.3,0,1,1,66.6-128.3A7.5,7.5,0,0,0,444.1,126.4Zm-54.7,13.4a7.5,7.5,0,0,0,4.3,9.7,34.1,34.1,0,0,1,21.8,31.7,7.5,7.5,0,0,0,15,0,49.2,49.2,0,0,0-31.4-45.7A7.5,7.5,0,0,0,389.5,139.8Z"/></svg>