<svg xmlns="http://www.w3.org/2000/svg" xmlns:xlink="http://www.w3.org/1999/xlink" viewBox="0 0 312.3 376"><defs><clipPath id="a" transform="translate(0)"><rect width="313" height="376" style="fill:none"/></clipPath></defs><title>quality</title><g style="clip-path:url(#a)"><path d="M311.8,334.7,262,214.5a6,6,0,1,0-11.1,4.6l45,108.6-41-11.9a6,6,0,0,0-6.9,2.9l-20.6,37.4L179.1,239.6A121,121,0,1,0,59.2,193L.5,334.7a6,6,0,0,0,7.2,8.1l48.4-14,24.3,44.2a6,6,0,0,0,5.3,3.1H86a6,6,0,0,0,5.2-3.7L137.7,260a6,6,0,0,0-11.1-4.6L84.9,356.2,64.3,318.7a6,6,0,0,0-6.9-2.9l-41,11.9L67.8,203.4a120.6,120.6,0,0,0,88.3,38.4c3.6,0,7.1-.2,10.7-.5l54.3,131a6,6,0,0,0,5.2,3.7h.3a6,6,0,0,0,5.3-3.1l24.3-44.2,48.4,14a6,6,0,0,0,7.2-8.1ZM47.2,120.9A108.9,108.9,0,1,1,156.1,229.8,109,109,0,0,1,47.2,120.9Zm0,0" transform="translate(0)"/></g><path d="M225.5,98.4a6,6,0,0,0-4.7-4.1l-40.4-6.8L161.4,51.2a6,6,0,0,0-10.6,0L131.9,87.5,91.5,94.3a6,6,0,0,0-3.3,10.1l28.7,29.2-6,40.5a6,6,0,0,0,8.6,6.3l36.6-18.2,36.6,18.3a6,6,0,0,0,2.7.6,6,6,0,0,0,5.9-6.9l-6-40.5L224,104.4a6,6,0,0,0,1.4-6.1Zm-40.8,29a6,6,0,0,0-1.7,5.1l4.8,32.1-29-14.4a6,6,0,0,0-5.3,0l-29,14.4,4.8-32.1a6,6,0,0,0-1.7-5.1l-22.7-23.1,32-5.4a6,6,0,0,0,4.3-3.1l15-28.7,15,28.7a6,6,0,0,0,4.3,3.1l32,5.4Zm0,0" transform="translate(0)"/><path d="M247,126.9a6,6,0,0,0-6.7,5.2,84.9,84.9,0,1,1,0-22.4,6,6,0,1,0,11.9-1.6,96.9,96.9,0,1,0,0,25.6,6,6,0,0,0-5.2-6.7Zm0,0" transform="translate(0)"/></svg>