<svg xmlns="http://www.w3.org/2000/svg" viewBox="0 0 512 512"><title>send-mail</title><path d="M4.4,465.2a15,15,0,0,0,21.2,0l94.6-94.6A15,15,0,1,0,99,349.4L4.4,444A15,15,0,0,0,4.4,465.2Z" transform="translate(0 0)"/><path d="M4.4,380.3a15,15,0,0,0,21.2,0l52.2-52.2a15,15,0,1,0-21.2-21.2L4.4,359.1A15,15,0,0,0,4.4,380.3Z" transform="translate(0 0)"/><path d="M68,507.6,162.6,413a15,15,0,0,0-21.2-21.2L46.8,486.4A15,15,0,0,0,68,507.6Z" transform="translate(0 0)"/><path d="M152.9,507.6l52.2-52.2a15,15,0,0,0-21.2-21.2l-52.2,52.2a15,15,0,0,0,21.2,21.2Z" transform="translate(0 0)"/><path d="M327.9,223.9V0A42.5,42.5,0,0,0,311.1,10L99,222.1a44.7,44.7,0,0,0-10.5,16.8H312.9A15,15,0,0,0,327.9,223.9Z" transform="translate(0 0)"/><path d="M512,153.9c-2.2-6.2-5.1-11.9-10-16.7L374.8,10A42.1,42.1,0,0,0,358,0V153.9Z" transform="translate(0 0)"/><path d="M502,200.9c4.8-4.8,7.8-10.6,10-16.8H358v39.9A45.2,45.2,0,0,1,312.9,269H273.1V423.5A44.6,44.6,0,0,0,289.9,413Z" transform="translate(0 0)"/><path d="M243,423.5V269H88.5A44.3,44.3,0,0,0,99,285.7L226.3,413A44.3,44.3,0,0,0,243,423.5Z" transform="translate(0 0)"/></svg>