<svg xmlns="http://www.w3.org/2000/svg" viewBox="0 0 514.1 512.6"><title>settings</title><path d="M410.7,307.5c-10.2,0-17.9,2.6-25.6,2.6l-74.2-74.2,61.4-61.4,79.4-28.2,58.9-94.7c2.6-5.1,2.6-12.8,0-15.4L479.8,5.4C474.7.3,467,.3,461.9,2.9L364.6,59.2l-30.7,81.9h0l-61.4,61.4-69.1-74.2c0-7.7,2.6-15.4,2.6-25.6,0-66.6-64-115.2-128-99.8l38.4,38.4c20.5,20.5,20.5,51.2,0,71.7s-51.2,20.5-71.7,0L3.6,77.1C-16.8,151.3,52.3,223,129.1,200l74.2,74.2-30.7,30.7c-17.9-5.1-35.8,0-48.6,12.8L19,422.7c-20.5,20.5-23,51.2-5.1,71.7,20.5,23,53.8,23,74.2,2.6L195.6,389.4c12.8-12.8,17.9-33.3,12.8-48.6l30.7-30.7,74.2,74.2c-2.6,7.7-2.6,17.9-2.6,25.6,0,66.6,64,115.2,128,99.8l-38.4-38.4c-20.5-20.5-20.5-51.2,0-71.7s51.2-20.5,71.7,0l38.4,38.4C528.4,371.5,477.2,307.5,410.7,307.5Z"/></svg>