<svg xmlns="http://www.w3.org/2000/svg" viewBox="0 0 45.1 48"><title>stopwatch</title><path d="M23.9,30.4A2.8,2.8,0,0,0,26,29.2l7.5-10.4a.8.8,0,0,0-1.1-1.1L22,25.2a2.9,2.9,0,0,0,1.7,5.2Zm-1.5-2.9a1.3,1.3,0,0,1,.5-.9L29.2,22l-4.6,6.3a1.3,1.3,0,0,1-2.3-.8Zm0,0"/><path d="M41.8,15.7h-.1a21.8,21.8,0,0,0-2.9-3.8L40.6,10l1.1,1.1,3.4-3.4L41.7,4.3,38.3,7.7l1.1,1.1-1.7,1.7a21.7,21.7,0,0,0-3.8-2.9h-.1A21.4,21.4,0,0,0,25.6,5V4h1.2a2,2,0,1,0,0-4H19.6a2,2,0,1,0,0,4h1.2v.9l-2.6.4a.8.8,0,1,0,.4,1.6l2.2-.4h1.6V8A.8.8,0,0,0,24,8V6.4a19.8,19.8,0,0,1,8.4,2.3l-.8,1.4a.8.8,0,0,0,.3,1.1h.4a.8.8,0,0,0,.7-.4l.8-1.4A20.1,20.1,0,0,1,40,15.7l-1.4.8A.8.8,0,0,0,39,18h.4l1.4-.8a19.9,19.9,0,0,1,2.3,8.5H41.5a.8.8,0,1,0,0,1.6h1.6a19.9,19.9,0,0,1-2.3,8.5l-1.4-.8a.8.8,0,0,0-.8,1.4l1.4.8a20.2,20.2,0,0,1-6.2,6.2L33,41.9a.8.8,0,0,0-1.4.8l.8,1.4A19.9,19.9,0,0,1,24,46.4V44.8a.8.8,0,1,0-1.6,0v1.6a20.2,20.2,0,0,1-3.8-.5.8.8,0,1,0-.4,1.6,21.7,21.7,0,0,0,4.8.6h.1a21.5,21.5,0,0,0,10.6-2.9h.1a21.7,21.7,0,0,0,7.8-7.8h.1a21.5,21.5,0,0,0,0-21.5Zm-.1-9,1.1,1.1L41.7,8.9,40.6,7.7ZM22.4,4.8V2.4H19.6a.4.4,0,1,1,0-.8h7.2a.4.4,0,1,1,0,.8H24V4.8H22.4Zm0,0"/><path d="M16,11.2H12a.8.8,0,1,0,0,1.6h4a.8.8,0,1,0,0-1.6Zm0,0"/><path d="M16,16.8H8a.8.8,0,1,0,0,1.6h8a.8.8,0,1,0,0-1.6Zm0,0"/><path d="M16,22.4H4A.8.8,0,0,0,4,24H16a.8.8,0,1,0,0-1.6Zm0,0"/><path d="M16,28H.8a.8.8,0,0,0,0,1.6H16A.8.8,0,1,0,16,28Zm0,0"/><path d="M16,33.6H5.6a.8.8,0,1,0,0,1.6H16a.8.8,0,1,0,0-1.6Zm0,0"/><path d="M16,39.2H10.4a.8.8,0,0,0,0,1.6H16a.8.8,0,1,0,0-1.6Zm0,0"/></svg>