<svg xmlns="http://www.w3.org/2000/svg" xmlns:xlink="http://www.w3.org/1999/xlink" viewBox="0 0 35.3 28.9"><defs><clipPath id="a"><rect y="0.1" width="36" height="28.93" style="fill:none"/></clipPath></defs><title>twitter-social-outlined-logo</title><g style="clip-path:url(#a)"><path d="M35,3.4a.8.8,0,0,0-.9,0l-.8.4a3.8,3.8,0,0,0,1.1-2.5.8.8,0,0,0-.5-.7.8.8,0,0,0-.8.1A7,7,0,0,1,29.2,2,7.6,7.6,0,0,0,16.5,7.6a7,7,0,0,0,.1.9C9.6,8.3,3.9,1.7,3.8,1.7a.8.8,0,0,0-1.3.1,7.5,7.5,0,0,0,.2,7.9.8.8,0,0,0-.7,0,.8.8,0,0,0-.4.7,7.3,7.3,0,0,0,2.9,6.2l-.3.2a.8.8,0,0,0-.2.8,7.1,7.1,0,0,0,5.1,5,10.7,10.7,0,0,1-6.1,1.7H.9a.8.8,0,0,0-.6,1.4,18.5,18.5,0,0,0,11.1,3.3,22.1,22.1,0,0,0,4.2-.4C31.2,24.8,31.8,10.8,31.8,8.3c2.9-2.7,3.4-3.7,3.5-4a.8.8,0,0,0-.3-.9Zm-4.5,4a.8.8,0,0,0-.3.6c0,.1.9,15.3-15,19a20.5,20.5,0,0,1-3.8.3A18.8,18.8,0,0,1,4,25.8a10.8,10.8,0,0,0,7.5-3.2.8.8,0,0,0-.6-1.3,5.8,5.8,0,0,1-4.9-3A4.3,4.3,0,0,0,7.8,18a.8.8,0,0,0-.2-1.5,5.9,5.9,0,0,1-4.4-4.7,3.9,3.9,0,0,0,1.9.3.8.8,0,0,0,.4-1.4c-.2-.1-3.6-3.1-2.1-7.1,2,2,7.5,6.9,14.1,6.5a.8.8,0,0,0,.6-.3.8.8,0,0,0,.1-.7,6.2,6.2,0,0,1-.2-1.5A6,6,0,0,1,28.3,3.4l.6.2H29a8.5,8.5,0,0,0,2.6-.4L30.2,4.4a.8.8,0,0,0,.6,1.4l1.4-.2L30.4,7.3Zm0,0" style="fill-rule:evenodd"/></g></svg>