<svg xmlns="http://www.w3.org/2000/svg" viewBox="0 0 512 298.6"><title>vk</title><path d="M262.7,298.6c-36.3,0-67.6-7.8-95.4-23.7S118,238.4,95.2,207.6C62.9,163.8,34.6,113.3,3.4,43.9-1,34.2-1.1,26,2.9,19.6S14.4,9.9,25,9.7c22.5-.4,45.5-.4,70.5,0,13.1.2,23.3,7.6,28.7,20.9,13.2,32.4,28.4,60.5,46.4,86,4.5,6.4,9.2,13,15.4,17.2a11.8,11.8,0,0,0,2.2,1.2,11.9,11.9,0,0,0,1.2-2.2c1.7-4.1,2.8-9,3.4-15.4,2.1-24,1.7-43.8-1.1-62.3-1.4-9.5-6-14.5-14.8-16.2-2.5-.5-10.1-1.9-12.7-9.2s2.4-13,4.3-15.2C174.9,7,183,0,198.2,0h80.9l2,.2c20.3,4,23.7,16.9,25.4,29.7a10.2,10.2,0,0,1,.1,1.4v89.9c0,.1,0,.2,0,.3-.1,4,2.3,11.6,4.5,13,1.1-.5,3.3-2.9,4.6-4.3l.9-.9c19.6-20.8,33.2-45.8,43.8-67.5,5.6-11.2,10.4-23.1,14.4-33.3,5.1-12.8,14.4-19.2,27.9-19h77.8a49.9,49.9,0,0,1,8.6.6c6.2,1.1,15,3.4,19.8,11.2s2.8,16.7.9,22.7c-6.6,20.9-19,38.1-31,54.7l-1.4,1.9c-6.1,8.5-12.6,17-18.8,25.1s-14.2,18.7-21,28.2c-4.5,6.3-6.5,10.6-6.2,13.5s3.1,6.9,8.8,12.5h0l13,12.4c12.2,11.5,24.8,23.4,35.9,36.8,6.1,7.4,13.1,16.3,18.5,26.7s5.2,21.2.2,30.1a24,24,0,0,1-19.5,12.5H416.6c-19.8,1.5-37.7-5.7-53.3-21.6-6.9-7-13.4-14.3-19.8-21.4l-9.1-10.1a58.9,58.9,0,0,0-10.9-9.8c-2.3-1.5-4.4-2.2-5.6-1.9s-2.5,1.8-3.8,4.1c-4.5,8.1-5.7,17.5-6.3,29-1,21.8-10.1,30.7-32.5,31.8Q268.9,298.6,262.7,298.6ZM20.4,30.7A17.3,17.3,0,0,0,22,35.6c30.6,68,58.2,117.3,89.6,159.9,21,28.5,41.9,48.1,65.8,61.8,27.5,15.7,59.2,22.5,96.9,20.7,7.9-.4,10.2-1.5,10.9-2.2s1.8-2.5,2.2-10.1c.6-12.5,2.1-25.6,8.8-37.9,5.2-9.4,11.9-12.9,16.7-14s12.4-1.4,21.7,4.6a77.5,77.5,0,0,1,14.9,13.1l9.3,10.3c6.2,6.9,12.6,14.1,19.1,20.7,11.5,11.7,23.4,16.7,37.5,15.5h72a3.7,3.7,0,0,0,2.8-2.1c1.2-2.1,1.8-6.2-.6-10.7-4.5-8.6-10.6-16.5-16-23-10.4-12.4-22-23.4-34.2-35l-13.2-12.6h0c-18.5-18-19.8-31.7-5-52.4,6.9-9.7,14.2-19.4,21.3-28.7S455,96.8,461,88.5l1.4-1.9c11.6-16,22.5-31.1,28.1-48.9,1.1-3.5,1.1-5.2,1.1-5.8s-2-1.1-5.7-1.7a33.2,33.2,0,0,0-5.2-.3H402.6c-4.6-.1-6.5.8-8.6,6.1-4.2,10.6-9.2,22.9-15.1,34.8-11.3,23-25.8,49.7-47.3,72.5l-.8.9c-4.6,4.9-13.1,14-25.9,9.8h-.3c-14.1-5.2-18.3-24.1-18.1-32.7V32c-.5-3.2-1.2-7.3-2.5-9s-1.2-1.6-5.7-2.6H198.2a15.9,15.9,0,0,0-7.7,1.5c11.7,5.3,19.2,15.7,21.3,30.1,3,20.1,3.4,41.4,1.2,67.1-.8,8.6-2.3,15.5-4.9,21.6-4,9.4-9.9,12.9-14.2,14.1s-11.1,1.5-19.5-4.3S159,135.5,154,128.4c-19-26.8-34.9-56.2-48.6-90.1-2.9-7.1-6.8-8.1-10.1-8.2-24.7-.4-47.5-.4-69.8,0A17.4,17.4,0,0,0,20.4,30.7Z"/><path d="M65.3,77.7a10.2,10.2,0,0,1-9.1-5.6L51.6,63a10.2,10.2,0,1,1,18.3-9l4.5,8.9a10.2,10.2,0,0,1-9.1,14.8Z"/><path d="M130.2,185a10.2,10.2,0,0,1-8.2-4.1,696.9,696.9,0,0,1-49.3-77.5,10.2,10.2,0,0,1,17.9-9.9,676.7,676.7,0,0,0,47.8,75.2,10.2,10.2,0,0,1-8.2,16.3Z"/></svg>