<svg xmlns="http://www.w3.org/2000/svg" viewBox="0 0 487.1 512"><title>available</title><path d="M108 230.5a33.6 33.6 0 0 0-40.9-5.1V109.8a33.3 33.3 0 0 0-4.2-16.3 17.2 17.2 0 0 1 22.7 16.3v85a8.2 8.2 0 0 0 16.3 0v-85a33.5 33.5 0 0 0-51-28.6 33.5 33.5 0 0 0-51 28.7v161a55.5 55.5 0 0 0 6.2 23.7l.2.3 100.9 162.4a40.1 40.1 0 0 1 4 15.6v30.8a8.2 8.2 0 0 0 16.3 0v-30.8a55.4 55.4 0 0 0-6.2-23.7l-.2-.3L20.6 286.5a40.2 40.2 0 0 1-4-15.6V109.8a17.2 17.2 0 1 1 34.4 0v145a33.4 33.4 0 0 0 9.6 23.1l78.1 78.1a8.202 8.202 0 1 0 11.6-11.6l-78.1-78.1A17.218 17.218 0 1 1 96.6 242l97.2 96c10.8 10.8 19.9 32.9 19.9 48.1v117.7a8.2 8.2 0 1 0 16.3 0V386.2c0-19.6-10.9-45.8-24.8-59.7zM453.6 76.3a33.3 33.3 0 0 0-17.4 4.9 33.5 33.5 0 0 0-51 28.6v85a8.2 8.2 0 0 0 16.3 0v-85a17.2 17.2 0 0 1 22.7-16.3 33.3 33.3 0 0 0-4.2 16.3v115.6a33.6 33.6 0 0 0-40.9 5.1l-97.3 96.1c-13.9 13.9-24.7 40.1-24.7 59.7v117.5a8.2 8.2 0 0 0 16.3 0V386.2c0-15.3 9.1-37.3 19.9-48.1l97.4-96.1a17.2 17.2 0 1 1 24.3 24.3l-78.1 78.1a8.202 8.202 0 1 0 11.6 11.6l78.1-78.1a33.4 33.4 0 0 0 9.8-23.1v-145a17.2 17.2 0 0 1 34.4 0v161.1a40.2 40.2 0 0 1-4 15.6L366 448.9l-.2.3a55.4 55.4 0 0 0-6.2 23.7v30.8a8.2 8.2 0 1 0 16.3 0v-30.8a40.1 40.1 0 0 1 4-15.6l100.7-162.4.2-.3a55.5 55.5 0 0 0 6.2-23.7V109.8a33.6 33.6 0 0 0-33.4-33.5z"/><path d="M126.5 212.4h234.2a8.2 8.2 0 0 0 8.2-8.2v-43.5a8.2 8.2 0 0 0-8.2-8.2H358v-16.3h2.7a8.2 8.2 0 0 0 8.2-8.2V84.4a8.2 8.2 0 0 0-8.2-8.2H358V59.9h2.7a8.2 8.2 0 0 0 8.2-8.2V8.2a8.2 8.2 0 0 0-8.2-8.2H126.5a8.2 8.2 0 0 0-8.2 8.2v43.5a8.2 8.2 0 0 0 8.2 8.2h2.7v16.4h-2.7a8.2 8.2 0 0 0-8.2 8.2V128a8.2 8.2 0 0 0 8.2 8.2h2.7v16.3h-2.7a8.2 8.2 0 0 0-8.2 8.2v43.6a8.2 8.2 0 0 0 8.2 8.1zm226-16.3H134.7v-27.2h217.8zM134.7 16.3h217.8v27.3H134.7zm10.9 43.6h196v16.4h-196zm0 76.3h138.9a8.2 8.2 0 0 0 0-16.3H134.7V92.6h217.8v27.2h-35.4a8.2 8.2 0 1 0 0 16.3h24.5v16.3h-196z"/></svg>