<svg xmlns="http://www.w3.org/2000/svg" viewBox="0 0 45.3 45.2"><defs><clipPath id="a"><path fill="none" d="M0 0h45.8v46H0z"/></clipPath></defs><title>call</title><g clip-path="url(#a)"><path d="M44.3 35.7l-7-7a3.6 3.6 0 0 0-5.1.1l-3.5 3.5-.7-.4a35.1 35.1 0 0 1-8.5-6.1 35.2 35.2 0 0 1-6.1-8.5l-.4-.7 2.4-2.4 1.2-1.2a3.6 3.6 0 0 0-.1-5l-7-7a3.6 3.6 0 0 0-5.1.1l-2 2h.1A11.4 11.4 0 0 0 .9 6a11.8 11.8 0 0 0-.8 2.9C-.8 16.6 2.7 23.6 12.2 33c13.1 13.2 23.7 12.2 24.2 12.1a11.8 11.8 0 0 0 2.9-.7 11.3 11.3 0 0 0 2.9-1.6l2-2a3.7 3.7 0 0 0 .1-5.1zm0 0" fill="#020202"/></g></svg>