<svg xmlns="http://www.w3.org/2000/svg" viewBox="0 0 382.7 391.5"><title>contract</title><path d="M220.6 24.6v55.2h55.3zm0 0"/><path d="M174.6 357.9l32.3-106.6 93.5-93.5v-57.7h-90.1a10.3 10.3 0 0 1-10.2-10.2V0H0v391.5h300.8v-85.4l-31.4 31.4zM45.6 57.8h125.5a10.2 10.2 0 0 1 0 20.5H45.6a10.2 10.2 0 1 1 0-20.5zm0 61.8h125.5a10.2 10.2 0 0 1 0 20.5H45.6a10.3 10.3 0 0 1-10.2-10.2 10.2 10.2 0 0 1 10.2-10.2zm0 81.8a10.2 10.2 0 1 1 0-20.5h125.5a10.2 10.2 0 0 1 0 20.5zm0 0"/><path d="M337.7 149.4L232.1 255.1l45.4 45.4 105.2-105.7zm-78.6 161.3l-37.6-37.6-16.5 54.4zm0 0"/></svg>