<svg xmlns="http://www.w3.org/2000/svg" viewBox="0 0 402.9 390.4"><defs><clipPath id="a"><path fill="none" d="M0 0h403v391H0z"/></clipPath></defs><title>drawing</title><path d="M255 187.4a3.8 3.8 0 0 0-3.8-3.8h-53.6V84.1h31.2L114.4 5.7 0 84.1h29.3v107.2h107.1v-76.6h38.3v76.5h15.4v38.3a3.8 3.8 0 1 0 7.6 0v-38.2h53.4a3.8 3.8 0 0 0 3.8-3.8zM113.5 153H67.6v-38.3h45.9zm4.9-146.5l1 .9 1.8.3h130a3.8 3.8 0 0 0 0-7.6h-130a3.8 3.8 0 0 0-3.8 3.8v.2a3.8 3.8 0 0 0 1 2.4zm0 0"/><path d="M259 38.3L247.3 18l-11.6 20.3h7.9V153h-7.9l11.7 20.2L259 153h-7.9V38.3zm-92 183.5H67.6V214l-20.3 11.7 20.2 11.7v-7.8H167v7.8l20.2-11.7L167 214zm0 0"/><g clip-path="url(#a)"><path d="M235.4 340.5l4.5 49.9 40.8-26.8 97.2-190.4-45.3-23.1zm154-230.1l-2.3-1.2c-10.6-5.4-26.2-7.5-31.5 3l-10.8 21.1 45.3 23.1 10.8-21.1c5.3-10.4-.9-19.5-11.5-25zm0 0"/></g></svg>