<svg xmlns="http://www.w3.org/2000/svg" viewBox="0 0 267 209.2"><defs><clipPath id="a" transform="translate(0 -.6)"><path fill="none" d="M0 0h266.9v210.72H0z"/></clipPath></defs><title>house</title><g clip-path="url(#a)"><path d="M264.8 142.5l-42.3-31.9V97.8a5.6 5.6 0 0 0-2.2-4.5l-83.4-62.8a5.6 5.6 0 0 0-6.7 0L46.8 93.3a5.6 5.6 0 0 0-2.2 4.5v12.8L2.2 142.5A5.6 5.6 0 0 0 0 147v56.6a5.6 5.6 0 0 0 5.6 5.6h255.8a5.6 5.6 0 0 0 5.6-5.6V147a5.6 5.6 0 0 0-2.2-4.5zM139.5 198h-12.1v-28.3h12.1zm11.2 0v-33.9a5.6 5.6 0 0 0-5.6-5.6h-23.3a5.6 5.6 0 0 0-5.6 5.6v33.8H55.8v-97.3L133.5 42l77.7 58.6V198zM11.2 149.8l33.4-25.2v73.3H11.2zM255.8 198h-33.4v-73.4l33.4 25.2zm0 0"/><path d="M9 106.5l124.5-93.9L258 106.5a5.6 5.6 0 1 0 6.7-8.9L136.9 1.1a5.6 5.6 0 0 0-6.7 0L2.2 97.6a5.6 5.6 0 1 0 6.8 8.9zm0 0"/></g></svg>