<svg xmlns="http://www.w3.org/2000/svg" viewBox="0 0 512 503.5"><title>industry</title><path d="M392.5 486.5V347l102.4-43.9v183.4zm110.9 17.1a8.5 8.5 0 0 0 8.5-8.5V290.2a8.5 8.5 0 0 0-11.9-7.8l-119.4 51.2a8.5 8.5 0 0 0-5.2 7.8V495a8.5 8.5 0 0 0 8.5 8.5z"/><path d="M273.1 486.5V347l102.4-43.9v183.4zm110.9 17a8.5 8.5 0 0 0 8.5-8.5V290.2a8.5 8.5 0 0 0-11.9-7.8l-119.4 51.2a8.5 8.5 0 0 0-5.2 7.8V495a8.5 8.5 0 0 0 8.5 8.5zm-231.4-17H18.1l15.1-136.6h104.2zm9.5 17.1a8.5 8.5 0 0 0 8.5-9.5l-17.1-153.6a8.5 8.5 0 0 0-8.5-7.6H25.6a8.5 8.5 0 0 0-8.5 7.6L.1 494.1a8.5 8.5 0 0 0 8.5 9.5z"/><path d="M51.9 332.9l15.8-213.4H103l15.8 213.4zm76.1 17a8.5 8.5 0 0 0 8.5-9.2l-17.1-230.3a8.5 8.5 0 0 0-8.5-7.9H59.7a8.5 8.5 0 0 0-8.5 7.9l-17 230.4a8.5 8.5 0 0 0 8.5 9.2z"/><path d="M136.6 342.3l17.1 153.6a8.5 8.5 0 0 0 8.5 7.6h102.3a8.5 8.5 0 0 0 8.5-8.5V341.4a8.5 8.5 0 0 0-8.5-8.5H145.1a8.5 8.5 0 0 0-8.5 9.4zm18 7.6H256v136.6h-86.2z"/><path d="M187.7 332.9v-65a3.2 3.2 0 0 1 3.2-3.2h27.7a3.2 3.2 0 0 1 3.2 3.2v65zm42.7 17a8.5 8.5 0 0 0 8.5-8.5v-73.6a20.3 20.3 0 0 0-20.3-20.3H191a20.3 20.3 0 0 0-20.3 20.3v73.6a8.5 8.5 0 0 0 8.5 8.5zm76.8 153.6h34.1a8.5 8.5 0 0 0 8.5-8.5v-59.7a8.5 8.5 0 0 0-8.5-8.5h-34.1a8.5 8.5 0 0 0-8.5 8.5V495a8.5 8.5 0 0 0 8.5 8.5zm8.5-59.7h17.1v42.7h-17.1zm111 59.7h34.1a8.5 8.5 0 0 0 8.5-8.5v-59.7a8.5 8.5 0 0 0-8.5-8.5h-34.1a8.5 8.5 0 0 0-8.5 8.5V495a8.5 8.5 0 0 0 8.5 8.5zm8.5-59.7h17.1v42.7h-17.1zM59.7 503.5h51.2a8.5 8.5 0 0 0 8.5-8.5v-68.3a8.5 8.5 0 0 0-8.5-8.5H59.7a8.5 8.5 0 0 0-8.5 8.5V495a8.5 8.5 0 0 0 8.5 8.5zm8.5-17.1v-51.1h34.1v51.2zM372 151.8a123.8 123.8 0 0 0 12.7-11.7c14.3 11.2 29.3 14.6 41.6 13.6l7.2-.2C497.3 152 530 75.8 485.8 30l-2.2-2.1a8.5 8.5 0 0 0-14.2 6.3c0 22.3-5.2 34.6-13.3 39.9a16.9 16.9 0 0 1-10.8 2.9h-1.5c-16 0-32.4-14.6-46.1-36.2-8.1-12.7-17.8-23-29.1-30.6S347.3-.5 340.8.1c-20.9.1-37.9 7.3-51.3 19.2a77.8 77.8 0 0 0-5 4.9c-4-5.5-9.9-9.6-17.1-12.2a57.8 57.8 0 0 0-20-3.4c-19.7 0-36.1 3.4-49.2 9.3a67.6 67.6 0 0 0-13.6 7.8h-13.9c-29.6 0-51.9 8.8-67.7 23.6-9.7 9.1-15 18.3-17.2 24.9A8.5 8.5 0 0 0 97 84.8l3.4-1.2c2.8-1 5.9-1.9 9.2-2.8a115.9 115.9 0 0 1 19.4-3.7c15.1-1.4 23.2 1.8 24.7 9.9a85.7 85.7 0 0 0 1.8 9.7 108.3 108.3 0 0 0 7.8 22.3c10.3 21.3 26.7 34.7 50 34.7a159.2 159.2 0 0 0 26.8-1.3c11.7-1.7 21-4.7 26.7-9.9 12.8 12.8 25.2 20.8 37 25 8.2 2.9 15.2 3.8 20.5 3.3 17.3-.2 33.1-7.4 47.7-19zM170.7 42.7h17.1a8.5 8.5 0 0 0 6-2.5c1.5-1.4 5.2-4 11.4-6.8 11-4.9 24.9-7.8 42.3-7.8a41.9 41.9 0 0 1 14.2 2.4c7.6 2.8 11.4 7.1 11.4 14.7 0 9.1 12.3 11.9 16.2 3.7a35.8 35.8 0 0 1 2.6-4.2A59.1 59.1 0 0 1 301 32c10.4-9.3 23.7-14.9 40.4-14.9h1.6c-.1 0 1.1.1 3 .7a48.4 48.4 0 0 1 13 6.4c9.2 6.2 17.3 14.8 24.2 25.6 16.6 25.9 36.4 43.8 59.9 44.1a33.8 33.8 0 0 0 22.4-5.6c9.1-6.1 15.5-16.2 18.7-30.9 15.9 34.4-8.6 78.2-51.1 79.1h-7.7a37.5 37.5 0 0 1-11.6-1 47.9 47.9 0 0 1-19.6-9.9q-2.1-1.7-4.1-3.8a8.5 8.5 0 0 0-12.8.8c-.7.9-2 2.5-4.1 4.7a107.1 107.1 0 0 1-11.7 10.9c-12 9.6-24.7 15.2-37.2 15.2h-1.4c-2.8.2-7.3-.3-13.2-2.4-9.4-3.4-19.7-10-30.5-20.8l-8.5-8.5a8.5 8.5 0 0 0-14.6 6c0 2.4-6.2 5.7-18.3 7.4a140.2 140.2 0 0 1-22.8 1.2h-1.2c-16.1 0-27.3-9.1-35-25.1a91.5 91.5 0 0 1-6.5-18.8 76.8 76.8 0 0 1-1.6-8.3c-3.8-19.9-20.4-26.4-43.1-24.4a118 118 0 0 0-13.3 2c12.9-11.8 31.1-19 56.4-19z"/><path d="M270.6 122l-17.1-17.1a8.556 8.556 0 0 0-12.1 12.1l17.1 17.1a8.556 8.556 0 1 0 12.1-12.1zm-91.4 262.1v68.3a8.55 8.55 0 1 0 17.1 0v-68.3a8.55 8.55 0 1 0-17.1 0zm42.7 0v68.3a8.55 8.55 0 0 0 17.1 0v-68.3a8.55 8.55 0 1 0-17.1 0zm85.3 17h34.1a8.5 8.5 0 0 0 8.5-8.5v-34.1a8.5 8.5 0 0 0-8.5-8.5h-34.1a8.5 8.5 0 0 0-8.5 8.5v34.1a8.5 8.5 0 0 0 8.5 8.5zm8.5-17.1v-17h17.1v17.1zm111 17.1h34.1a8.5 8.5 0 0 0 8.5-8.5v-34.1a8.5 8.5 0 0 0-8.5-8.5h-34.1a8.5 8.5 0 0 0-8.5 8.5v34.1a8.5 8.5 0 0 0 8.5 8.5zm8.5-17.1v-17h17.1v17.1z"/></svg>