<svg xmlns="http://www.w3.org/2000/svg" viewBox="0 0 24.9 22"><defs><clipPath id="a"><path fill="none" d="M0 .1h25v21.87H0z"/></clipPath></defs><title>instructor</title><g clip-path="url(#a)"><path d="M7.1 3.1A3.1 3.1 0 1 1 4 0a3.1 3.1 0 0 1 3.1 3.1zm0 0"/></g><path d="M24.6 3.9h-7.5v-.8h-2v.8H7.6V5h.5v2.2l-1.2-.5H5.2L4 8 2.8 6.7l-2.5.4-.1 5.6h1v1.2h.2v6.7h-.2l-1.2.2V22h1.1l1.2-.2v.2h1.4v-6.9h.8V22h1.3v-.2L7 22h1.1v-1.2l-1.2-.3h-.2v-6.7h.2l.3-5.1 1 .4V15h7.3v1.9l-4 4.6h1.4l2.7-3.1v3.1h.8v-3.1l2.7 3.1h1.5l-4.1-4.6V15h8.1V5h.3V4zm-.7 10.3H8.8V9.5l3 1.3V9l-3-1.4V5h15.1zm0 0"/></svg>