<svg xmlns="http://www.w3.org/2000/svg" viewBox="0 0 24.8 24.8"><title>instagram</title><path d="M18.5 24.8H6.3A6.4 6.4 0 0 1 0 18.5V6.3A6.4 6.4 0 0 1 6.3 0h12.2a6.4 6.4 0 0 1 6.3 6.3v12.2a6.4 6.4 0 0 1-6.3 6.3zM6.3 1.4a4.9 4.9 0 0 0-4.9 4.9v12.2a4.9 4.9 0 0 0 4.9 4.9h12.2a4.9 4.9 0 0 0 4.9-4.9V6.3a4.9 4.9 0 0 0-4.9-4.9H6.3zm0 0" fill="#010002"/><path d="M24.1 9.3h-8.7a.7.7 0 1 1 0-1.4h8.7a.7.7 0 0 1 0 1.4zm-14.8 0H.7a.7.7 0 1 1 0-1.4h8.6a.7.7 0 1 1 0 1.4zm0 0" fill="#010002"/><path d="M12.4 18a5.5 5.5 0 1 1 5.6-5.6 5.5 5.5 0 0 1-5.6 5.6zm0-9.7a4.1 4.1 0 1 0 4.1 4.1 4.1 4.1 0 0 0-4.1-4.1zm8-.8h-3.1a.7.7 0 0 1-.7-.7V3.6a.7.7 0 0 1 .7-.7h3.2a.7.7 0 0 1 .7.7v3.2a.7.7 0 0 1-.7.7zM18 6.1h1.8V4.3H18zm0 0" fill="#010002"/></svg>