<svg xmlns="http://www.w3.org/2000/svg" viewBox="0 0 512 512"><title>send-mail</title><path d="M4.4 465.2a15 15 0 0 0 21.2 0l94.6-94.6A15 15 0 1 0 99 349.4L4.4 444a15 15 0 0 0 0 21.2zm0-84.9a15 15 0 0 0 21.2 0l52.2-52.2a15 15 0 1 0-21.2-21.2L4.4 359.1a15 15 0 0 0 0 21.2zM68 507.6l94.6-94.6a15 15 0 0 0-21.2-21.2l-94.6 94.6A15 15 0 0 0 68 507.6zm84.9 0l52.2-52.2a15 15 0 0 0-21.2-21.2l-52.2 52.2a15 15 0 0 0 21.2 21.2zm175-283.7V0a42.5 42.5 0 0 0-16.8 10L99 222.1a44.7 44.7 0 0 0-10.5 16.8h224.4a15 15 0 0 0 15-15zm184.1-70c-2.2-6.2-5.1-11.9-10-16.7L374.8 10A42.1 42.1 0 0 0 358 0v153.9z"/><path d="M502 200.9c4.8-4.8 7.8-10.6 10-16.8H358V224a45.2 45.2 0 0 1-45.1 45h-39.8v154.5a44.6 44.6 0 0 0 16.8-10.5zM243 423.5V269H88.5A44.3 44.3 0 0 0 99 285.7L226.3 413a44.3 44.3 0 0 0 16.7 10.5z"/></svg>