<svg xmlns="http://www.w3.org/2000/svg" viewBox="0 0 35.3 28.9"><defs><clipPath id="a"><path fill="none" d="M0 .1h36v28.93H0z"/></clipPath></defs><title>twitter-social-outlined-logo</title><g clip-path="url(#a)"><path d="M35 3.4a.8.8 0 0 0-.9 0l-.8.4a3.8 3.8 0 0 0 1.1-2.5.8.8 0 0 0-.5-.7.8.8 0 0 0-.8.1A7 7 0 0 1 29.2 2a7.6 7.6 0 0 0-12.7 5.6 7 7 0 0 0 .1.9c-7-.2-12.7-6.8-12.8-6.8a.8.8 0 0 0-1.3.1 7.5 7.5 0 0 0 .2 7.9.8.8 0 0 0-.7 0 .8.8 0 0 0-.4.7 7.3 7.3 0 0 0 2.9 6.2l-.3.2a.8.8 0 0 0-.2.8 7.1 7.1 0 0 0 5.1 5A10.7 10.7 0 0 1 3 24.3H.9a.8.8 0 0 0-.6 1.4A18.5 18.5 0 0 0 11.4 29a22.1 22.1 0 0 0 4.2-.4c15.6-3.8 16.2-17.8 16.2-20.3 2.9-2.7 3.4-3.7 3.5-4a.8.8 0 0 0-.3-.9zm-4.5 4a.8.8 0 0 0-.3.6c0 .1.9 15.3-15 19a20.5 20.5 0 0 1-3.8.3A18.8 18.8 0 0 1 4 25.8a10.8 10.8 0 0 0 7.5-3.2.8.8 0 0 0-.6-1.3 5.8 5.8 0 0 1-4.9-3 4.3 4.3 0 0 0 1.8-.3.8.8 0 0 0-.2-1.5 5.9 5.9 0 0 1-4.4-4.7 3.9 3.9 0 0 0 1.9.3.8.8 0 0 0 .4-1.4c-.2-.1-3.6-3.1-2.1-7.1 2 2 7.5 6.9 14.1 6.5a.8.8 0 0 0 .6-.3.8.8 0 0 0 .1-.7 6.2 6.2 0 0 1-.2-1.5 6 6 0 0 1 10.3-4.2l.6.2h.1a8.5 8.5 0 0 0 2.6-.4l-1.4 1.2a.8.8 0 0 0 .6 1.4l1.4-.2-1.8 1.7zm0 0" fill-rule="evenodd"/></g></svg>