<svg xmlns="http://www.w3.org/2000/svg" viewBox="0 0 460.9 512"><title>viber</title><path d="M281.6 0H179.2C80.4 0 0 80.4 0 179.2V256a179.3 179.3 0 0 0 102.4 162v85.5c0 7.4 9.3 11.3 14.6 6l74.3-74.3h90.3c98.8 0 179.2-80.4 179.2-179.2v-76.8C460.8 80.4 380.4 0 281.6 0z" fill="#665cac"/><path d="M128 418A179.3 179.3 0 0 1 25.6 256v-76.8C25.6 80.4 106 0 204.8 0h-25.6C80.4 0 0 80.4 0 179.2V256a179.3 179.3 0 0 0 102.4 162v85.5c0 7.4 9.3 11.3 14.6 6l11-11z" fill="#523494"/><path d="M359.2 318.1l-7.7-41.6a8.5 8.5 0 0 0-6.7-6.8l-60.3-12.1a8.5 8.5 0 0 0-7.7 2.3l-24.5 24.5c-41.3-18.5-64.2-41.5-84.4-84.6l24.4-24.4a8.5 8.5 0 0 0 2.3-7.7l-12.1-60.3a8.5 8.5 0 0 0-6.8-6.7L134.2 93a8.6 8.6 0 0 0-3.4.1 59.6 59.6 0 0 0-29 16C88 122.9 82.7 143 86.5 167.3c6.4 40.8 26.4 97.6 63.3 134.6l.5.5c37 36.9 93.8 56.9 134.6 63.3a95.4 95.4 0 0 0 14.8 1.2c17.7 0 32.5-5.6 43.4-16.5a59.6 59.6 0 0 0 16-29 8.6 8.6 0 0 0 .1-3.3z" fill="#fff"/><path fill="#e5e5e5" d="M184 183.8l8.3-8.3h.1l-8.4 8.3z"/><rect x="292.2" y="264.2" width="11.9" transform="rotate(-45 285.388 294.988)" fill="#e5e5e5"/><path d="M315.9 350.9a95.4 95.4 0 0 1-14.8-1.2c-40.8-6.4-97.6-26.4-134.6-63.3l-.5-.5c-36.9-37-56.9-93.8-63.3-134.6-3.1-19.6-.2-36.5 8.3-49.6a59.8 59.8 0 0 0-9.1 7.5c-13.8 13.8-19.1 33.9-15.3 58.2C93 208.2 113 265 149.9 302l.5.5c37 36.9 93.8 56.9 134.6 63.3a95.4 95.4 0 0 0 14.8 1.2c17.7 0 32.5-5.6 43.4-16.5a59.8 59.8 0 0 0 7.5-9.1c-9.7 6.3-21.4 9.5-34.8 9.5z" fill="#e5e5e5"/><path d="M247.5 145.1a8.55 8.55 0 1 0 0 17.1 34.2 34.2 0 0 1 34.1 34.1 8.55 8.55 0 0 0 17.1 0 51.3 51.3 0 0 0-51.2-51.2z" fill="#fff"/><path d="M247.5 110.9a86.8 86.8 0 0 0-9.5.5 8.553 8.553 0 1 0 1.9 17 69.4 69.4 0 0 1 7.6-.4 68.4 68.4 0 0 1 68.3 68.3 69.4 69.4 0 0 1-.4 7.6 8.553 8.553 0 1 0 17 1.9 86.8 86.8 0 0 0 .5-9.5 85.4 85.4 0 0 0-85.4-85.4z" fill="#fff"/><path d="M247.5 76.8c-3 0-6.1.1-9.2.3a8.525 8.525 0 1 0 1.3 17c2.6-.2 5.3-.3 7.9-.3a102.5 102.5 0 0 1 99.7 126.1 8.526 8.526 0 0 0 16.6 3.9 119.6 119.6 0 0 0-116.3-147z" fill="#fff"/></svg>