<svg xmlns="http://www.w3.org/2000/svg" viewBox="0 0 496 496"><title>whatsapp</title><path fill="#fff" d="M87 96h327v308H87z"/><path d="M248.1 0h-.2C111.2 0 0 111.2 0 248a246.3 246.3 0 0 0 47.2 145.4l-30.9 92.1 95.3-30.5A246 246 0 0 0 248 496c136.8 0 248-111.2 248-248S384.8 0 248.1 0zm144.3 350.2c-6 16.9-29.7 30.9-48.7 35-13 2.8-29.9 5-86.9-18.7-72.9-30.1-119.8-104.2-123.4-109S104 218.3 104 182.7s18.1-52.9 25.4-60.4 15.9-8.9 25.4-8.9c3.1 0 5.8.1 8.3.3 7.3.3 10.9.8 15.7 12.3 6 14.4 20.6 50 22.3 53.6s3.5 8.6 1 13.4-4.4 7.2-8 11.4-7.2 7.4-10.8 12-7.2 8.2-2.9 15.5 18.8 30.9 40.2 50c27.7 24.6 50.1 32.5 58.2 35.9 6 2.5 13.1 1.9 17.5-2.8s12.4-15.9 19.4-25.7c5-7 11.2-7.9 17.8-5.4s42.1 19.8 49.4 23.5 12.1 5.4 13.8 8.5 1.7 17.4-4.3 34.3z" fill="#7fd371"/><path d="M0 248a246.3 246.3 0 0 0 47.2 145.4l-30.9 92.1 95.3-30.5A246 246 0 0 0 248 496c136.8 0 248-111.2 248-248S384.8 0 248.1 0h-.2m144.5 350.2c-6 16.9-29.7 30.9-48.7 35-13 2.8-29.9 5-86.9-18.7-72.9-30.1-119.8-104.2-123.4-109S104 218.3 104 182.7s18.1-52.9 25.4-60.4 15.9-8.9 25.4-8.9c3.1 0 5.8.1 8.3.3 7.3.3 10.9.8 15.7 12.3 6 14.4 20.6 50 22.3 53.6s3.5 8.6 1 13.4-4.4 7.2-8 11.4-7.2 7.4-10.8 12-7.2 8.2-2.9 15.5 18.8 30.9 40.2 50c27.7 24.6 50.1 32.5 58.2 35.9 6 2.5 13.1 1.9 17.5-2.8s12.4-15.9 19.4-25.7c5-7 11.2-7.9 17.8-5.4s42.1 19.8 49.4 23.5 12.1 5.4 13.8 8.5 1.7 17.4-4.3 34.3z" fill="#6dbc61"/><path d="M327.4 13.1c63.2 54.1 104.5 136.7 104.5 206.6 0 38.5-12.6 74.6-34.4 105.5a88.4 88.4 0 0 1-5.2 24.9c-6 16.9-29.7 30.9-48.7 35a65.9 65.9 0 0 1-12.1 1.6c-41.4 26-92.9 41.3-148.6 41.3-50.2 0-96.9-12.5-136-33.8l-30.6 91.3 95.3-30.5A246 246 0 0 0 248 496c136.8 0 248-111.2 248-248 0-109-70.7-201.8-168.6-234.9z" fill="#549b45"/><path d="M333.3 283.9c1.7.6 5.1 2.1 9.3 4.1L177 122.2q.9 1.6 1.7 3.8c6 14.4 20.6 50 22.3 53.6s3.5 8.6 1 13.4-4.4 7.2-8 11.4-7.2 7.4-10.8 12-7.2 8.2-2.9 15.5 18.8 30.9 40.2 50c27.7 24.6 50.1 32.5 58.2 35.9 6 2.5 13.1 1.9 17.5-2.8s12.4-15.9 19.4-25.7c4.9-7.1 11.2-7.9 17.7-5.4z" fill="#549b45"/></svg>